<svg viewBox="0 0 66 66" fill="none" xmlns="http://www.w3.org/2000/svg">
	<circle cx="33" cy="33" r="33" fill="#A8DCEC" />
	<g clip-path="url(#clip0_231_185)">
		<path d="M33.5904 43.0834C39.5067 43.0834 44.3029 38.2872 44.3029 32.3709C44.3029 26.4546 39.5067 21.6584 33.5904 21.6584C27.6741 21.6584 22.8779 26.4546 22.8779 32.3709C22.8779 38.2872 27.6741 43.0834 33.5904 43.0834Z" fill="#A0616A" />
		<path d="M24.7237 45.4821L26.9568 39.7753L38.4944 38.0385L39.734 50.6711L28.0723 50.9192L24.7237 45.4821Z" fill="#A0616A" />
		<path d="M44.4066 34.3475C44.2676 34.9045 43.9866 36.2307 43.5477 36.2372C43.1891 36.2424 42.8459 30.4889 43.2041 29.5373C43.6155 28.4439 42.5343 27.0609 41.7198 26.351C40.2554 25.0745 37.0047 27.8155 33.6992 26.5738C33.6116 26.5409 33.629 26.5446 32.5852 26.1282C29.3733 24.8467 29.2045 24.8097 29.0205 24.7914C27.4635 24.6374 25.5633 25.9115 24.7874 27.465C23.9808 29.0798 24.6547 30.4649 23.8962 34.3716C23.8078 34.827 23.669 35.476 23.4506 35.4856C23.0513 35.503 22.6615 33.3706 22.5594 32.8121C22.1317 30.4721 21.7192 28.216 22.5594 25.6826C22.6511 25.4063 23.2159 24.3806 24.3418 22.3407C25.9638 19.4019 26.7796 17.927 27.0153 17.662C28.7061 15.7606 31.7837 14.0261 34.3676 14.7656C35.6735 15.1394 35.4394 15.7404 37.0411 16.3252C39.8955 17.3674 42.3763 16.0928 42.8338 16.9936C43.0762 17.4707 42.398 17.8641 42.3882 18.7759C42.3713 20.3405 44.3501 20.7926 45.5073 22.3407C46.1294 23.1729 47.1942 23.1818 44.4066 34.3475L44.4066 34.3475V34.3475Z" fill="#2F2E41" />
		<path d="M57.6781 54.9103C57.2463 55.3954 56.7985 55.8705 56.3345 56.3346C50.1017 62.5672 41.8145 66 33 66C25.3815 66 18.1575 63.4357 12.313 58.7152C12.3093 58.7128 12.3068 58.7102 12.3031 58.7065C11.5277 58.0813 10.7771 57.4163 10.0526 56.7141C10.0662 56.605 10.0811 56.497 10.0973 56.3903C10.199 55.6708 10.3119 54.9847 10.4384 54.3532C11.4743 49.1775 25.1048 43.7437 25.4596 43.6022C25.4646 43.6009 25.4671 43.5997 25.4671 43.5997C25.4671 43.5997 27.2213 50.0658 34.7381 49.9827C39.8581 49.9268 38.8656 43.5997 38.8656 43.5997C38.8656 43.5997 38.9276 43.6121 39.0442 43.6369C40.523 43.9508 50.7903 46.2062 54.8408 49.2842C56.0752 50.222 56.961 52.2195 57.5974 54.6013C57.6247 54.7031 57.6508 54.8073 57.6781 54.9103V54.9103Z" fill="#4F46E5" />
	</g>
</svg>
