<svg viewBox="0 0 323 231" fill="none" xmlns="http://www.w3.org/2000/svg">
	<g clip-path="url(#clip0_182_640)">
		<path d="M46.9788 198.255V198.85C46.9796 199.837 47.3757 200.784 48.0801 201.481C48.7844 202.179 49.7395 202.572 50.7356 202.573H82.5934C83.5897 202.572 84.545 202.18 85.2495 201.482C85.9539 200.784 86.3499 199.837 86.3502 198.85V198.255C86.3521 197.384 86.0434 196.54 85.4785 195.872C85.2906 195.651 85.0778 195.451 84.8444 195.277H68.3204C68.1212 195.277 67.9301 195.198 67.7892 195.059C67.6483 194.919 67.5691 194.73 67.5691 194.532H50.7356C49.7396 194.534 48.7849 194.926 48.0806 195.624C47.3764 196.322 46.9801 197.268 46.9788 198.255Z" fill="#3F3D56" />
		<path d="M64.5621 229.822H68.4692V202.425H64.5621V229.822Z" fill="#3F3D56" />
		<path d="M53.4419 229.685C53.4419 230.104 59.3625 229.847 66.6659 229.847C73.9693 229.847 79.8899 230.104 79.8899 229.685C79.8899 229.267 73.9693 225.95 66.6659 225.95C59.3625 225.95 53.4419 229.267 53.4419 229.685Z" fill="#3F3D56" />
		<path d="M53.1099 197.626L66.442 199.735L81.9322 202.186L87.303 203.034C87.8186 203.115 88.3454 202.99 88.7679 202.686C89.1905 202.382 89.4742 201.925 89.557 201.414L89.8005 199.907L90.0259 198.505L90.2121 197.349C90.2543 197.091 90.243 196.827 90.1789 196.573C90.1148 196.319 89.9994 196.081 89.8395 195.872C89.6506 195.616 89.3993 195.411 89.1092 195.277H68.3204C68.1212 195.277 67.9301 195.198 67.7892 195.059C67.6483 194.919 67.5691 194.73 67.5691 194.532V193.946C67.5691 193.748 67.6483 193.559 67.7892 193.419C67.9301 193.28 68.1212 193.201 68.3204 193.201H76.4893L72.7234 192.606L61.1464 190.774L54.3872 189.705C53.8704 189.624 53.3422 189.749 52.9184 190.053C52.4947 190.358 52.2101 190.816 52.1271 191.328L51.4718 195.39C51.3919 195.901 51.5191 196.423 51.826 196.842C52.1328 197.261 52.5943 197.543 53.1099 197.626Z" fill="#4F46E5" />
		<path d="M81.9321 197.06V219.755C81.9329 220.272 82.1405 220.768 82.5095 221.134C82.8785 221.499 83.3788 221.705 83.9006 221.706H88.0572C88.5791 221.705 89.0794 221.499 89.4484 221.134C89.8175 220.768 90.0251 220.272 90.0259 219.755V197.06C90.0266 196.63 89.8816 196.212 89.6141 195.872C89.416 195.611 89.153 195.406 88.8507 195.277H83.1042C82.8033 195.407 82.5415 195.612 82.3439 195.872C82.0768 196.212 81.9319 196.63 81.9321 197.06Z" fill="#4F46E5" />
		<path d="M69.4053 158.648C69.4265 158.85 69.4792 159.048 69.5616 159.235C69.6868 159.519 69.8796 159.77 70.1237 159.964L70.1328 159.97L81.9923 169.503L82.1665 169.64L84.6221 171.614L85.3644 172.21H98.2067L97.4673 171.614L87.3179 163.454L80.5166 157.987L75.224 153.735C74.9143 153.484 74.5345 153.335 74.136 153.306C74.1344 153.304 74.1323 153.303 74.13 153.303C74.0118 153.294 73.8931 153.296 73.7753 153.309C73.5989 153.326 73.4259 153.368 73.2614 153.434C73.1489 153.474 73.0419 153.528 72.9428 153.595C72.7559 153.707 72.5902 153.852 72.4529 154.02L69.8742 157.168L69.8352 157.219C69.6717 157.417 69.5495 157.645 69.4758 157.891C69.402 158.136 69.378 158.393 69.4053 158.648Z" fill="#4F46E5" />
		<path d="M70.1328 159.97C70.3563 160.524 70.6814 161.032 71.0916 161.468L78.9869 169.872C79.1777 170.046 79.4012 170.18 79.6446 170.268C79.8881 170.356 80.1466 170.395 80.4054 170.384C80.6643 170.373 80.9183 170.311 81.1529 170.202C81.3876 170.093 81.5982 169.94 81.7728 169.75L81.9923 169.503L82.0885 169.396L85.4997 165.605L86.9663 163.973C87.0638 163.872 87.1486 163.76 87.2187 163.639C87.2548 163.58 87.2879 163.517 87.3179 163.455C87.4409 163.176 87.4975 162.874 87.4832 162.57C87.4732 162.312 87.4109 162.058 87.2999 161.825C87.1889 161.591 87.0315 161.381 86.837 161.209L77.6824 154.277C76.6723 153.509 75.4006 153.161 74.1361 153.306C74.1345 153.304 74.1323 153.303 74.13 153.303C73.8492 153.338 73.5717 153.396 73.3005 153.476C73.1803 153.508 73.0631 153.55 72.9428 153.595C72.1667 153.884 71.4785 154.366 70.9442 154.994C70.3629 155.671 69.98 156.493 69.8369 157.37C69.6939 158.247 69.7962 159.147 70.1328 159.97L70.1328 159.97Z" fill="#2F2E41" />
		<path d="M66.3839 146.385C74.7035 146.385 81.4478 139.702 81.4478 131.459C81.4478 123.215 74.7035 116.533 66.3839 116.533C58.0643 116.533 51.3199 123.215 51.3199 131.459C51.3199 139.702 58.0643 146.385 66.3839 146.385Z" fill="#4F46E5" />
		<path d="M62.3726 195.569L67.9597 196.45L68.0861 196.471L76.5794 197.814L81.9322 198.663L89.8005 199.907L90.0259 199.943L91.1949 200.128L96.5657 200.976C97.0813 201.057 97.6082 200.932 98.0307 200.628C98.4533 200.324 98.737 199.867 98.8198 199.356L99.2887 196.45L99.4751 195.295C99.4751 195.289 99.478 195.283 99.478 195.277H68.3204C68.1212 195.277 67.9301 195.198 67.7892 195.059C67.6483 194.919 67.5691 194.73 67.5691 194.532V193.946C67.5691 193.748 67.6483 193.559 67.7892 193.419C67.9301 193.28 68.1212 193.201 68.3204 193.201H78.1662V189.946L77.5651 189.851L74.5958 189.38L63.647 187.65C63.1309 187.569 62.6034 187.694 62.1802 187.998C61.757 188.301 61.4728 188.759 61.3898 189.27L61.1464 190.774L60.7346 193.335C60.6539 193.846 60.781 194.368 61.088 194.787C61.395 195.206 61.857 195.487 62.3726 195.569Z" fill="#4F46E5" />
		<path d="M45.8817 182.382C45.8817 194.55 47.129 201.828 66.364 199.744C66.391 199.741 66.415 199.738 66.442 199.735C69.8727 199.399 73.2657 198.756 76.5794 197.814C78.3015 197.316 79.9752 196.666 81.5806 195.872C81.9592 195.682 82.3228 195.482 82.6806 195.277H68.3204C68.1212 195.277 67.9301 195.198 67.7892 195.059C67.6483 194.919 67.5691 194.73 67.5691 194.532V193.946C67.5691 193.748 67.6483 193.559 67.7892 193.419C67.9301 193.28 68.1212 193.201 68.3204 193.201H78.1662V174.392C78.1671 173.814 78.3995 173.259 78.8124 172.85C79.2254 172.441 79.7852 172.21 80.3693 172.21H88.3789C88.3096 172.013 88.2407 171.814 88.1655 171.614C87.4141 169.554 86.5234 167.546 85.4997 165.605C84.0971 162.908 82.4279 160.357 80.5166 157.987C79.1857 156.336 77.6916 154.82 76.0565 153.464C73.042 150.998 69.76 149.473 66.43 149.473C54.1497 149.473 45.8817 170.214 45.8817 182.382Z" fill="#2F2E41" />
		<path d="M66.0674 136.991L66.0517 136.433C67.099 136.404 68.0222 136.339 68.716 135.837C68.9127 135.687 69.0744 135.496 69.19 135.278C69.3057 135.06 69.3726 134.82 69.3863 134.574C69.3985 134.424 69.3756 134.273 69.3193 134.133C69.263 133.993 69.1749 133.868 69.0618 133.767C68.6013 133.381 67.8602 133.506 67.3201 133.752L66.8543 133.963L67.7475 127.496L68.3052 127.571L67.5455 133.073C67.8565 132.959 68.1914 132.923 68.5197 132.97C68.8481 133.017 69.1593 133.144 69.4252 133.341C69.604 133.496 69.7444 133.689 69.8352 133.906C69.926 134.124 69.9649 134.359 69.9488 134.594C69.9324 134.924 69.8433 135.247 69.6877 135.539C69.5321 135.832 69.3138 136.087 69.0481 136.287C68.1567 136.933 66.9982 136.965 66.0674 136.991Z" fill="#2F2E41" />
		<path d="M74.0953 128.046H71.0634V128.603H74.0953V128.046Z" fill="#2F2E41" />
		<path d="M64.5254 128.046H61.4935V128.603H64.5254V128.046Z" fill="#2F2E41" />
		<path d="M54.3615 127.358C55.5331 125.61 57.5946 124.87 59.6274 124.69C61.9155 124.487 64.1264 124.924 66.3604 125.349C68.819 125.816 71.421 126.253 73.8983 125.662C74.9942 125.411 76.0183 124.917 76.8933 124.216C77.7683 123.516 78.4714 122.628 78.9496 121.619C79.8567 119.651 80.0521 117.433 79.5031 115.339C78.8559 113.115 77.5417 111.139 75.7348 109.672C72.1695 106.65 67.3447 105.293 62.7042 105.421C58.0812 105.539 53.613 107.096 49.9327 109.87C46.2462 112.745 43.6521 116.773 42.5737 121.297C41.446 125.783 41.8134 130.511 43.6208 134.774C44.6363 137.108 46.105 139.212 47.2383 141.488C48.2934 143.606 49.1061 146.069 48.4495 148.432C48.1609 149.486 47.6064 150.45 46.8384 151.234C46.0703 152.017 45.1138 152.594 44.0587 152.911C43.0927 153.162 42.0704 153.096 41.1458 152.722C40.2211 152.347 39.444 151.686 38.9313 150.837C37.8699 149.178 37.8445 147.006 39.4382 145.667C39.84 145.324 40.3081 145.065 40.814 144.907C41.3198 144.749 41.8529 144.694 42.3808 144.746C42.9087 144.798 43.4203 144.956 43.8846 145.211C44.3489 145.465 44.7562 145.81 45.0816 146.225C45.7282 147.057 46.0176 148.108 45.8871 149.15C45.8086 149.677 46.6221 149.904 46.7014 149.373C46.8915 148.271 46.6806 147.138 46.1062 146.175C45.5318 145.213 44.6313 144.484 43.565 144.118C42.4986 143.752 41.3359 143.773 40.2838 144.177C39.2317 144.581 38.3586 145.343 37.8202 146.325C36.8591 148.116 37.3776 150.275 38.5976 151.806C39.2271 152.621 40.0803 153.239 41.0551 153.587C42.0299 153.934 43.0851 153.996 44.0943 153.764C46.3151 153.256 48.1318 151.507 48.9861 149.452C49.9373 147.164 49.5015 144.611 48.5743 142.391C47.572 139.991 46.0836 137.838 44.9066 135.526C43.8408 133.436 43.1626 131.173 42.9043 128.846C42.3873 124.172 43.4579 119.46 45.9468 115.457C48.4836 111.515 52.3556 108.6 56.8673 107.233C61.3463 105.807 66.1817 105.934 70.5784 107.592C74.8691 109.267 79.0122 112.918 78.9624 117.821C78.9412 119.915 78.1565 122.051 76.5375 123.448C74.6026 125.117 71.9086 125.26 69.4763 124.999C67.0286 124.737 64.6517 124.029 62.1935 123.848C60.0553 123.691 57.7485 123.854 55.8394 124.907C54.9504 125.398 54.1934 126.094 53.6324 126.936C53.3309 127.385 54.0619 127.805 54.3615 127.358L54.3615 127.358Z" fill="#2F2E41" />
		<path d="M56.7586 163.889C56.7825 163.943 56.8096 163.996 56.8396 164.047C56.8698 164.1 56.9029 164.152 56.9388 164.202L63.5267 173.597L64.0377 174.327L69.4114 181.986L74.5958 189.38L76.6936 192.376C76.7501 192.458 76.8134 192.534 76.8831 192.605C77.2075 192.943 77.6437 193.155 78.1123 193.201H78.1663V180.423L77.5652 179.565L70.824 169.952L63.5839 159.628C63.2857 159.203 62.8297 158.913 62.3159 158.821C61.8021 158.729 61.2724 158.842 60.8429 159.136L58.6219 160.664L57.4286 161.486C57.0514 161.746 56.7779 162.129 56.6555 162.568C56.5331 163.007 56.5696 163.474 56.7586 163.889Z" fill="#4F46E5" />
		<path d="M55.7276 163.66L56.025 164.253L56.0281 164.256L56.1093 164.414L60.939 173.913C61.2112 174.355 61.649 174.672 62.1565 174.795C62.664 174.917 63.1999 174.836 63.647 174.568L63.9596 174.375L64.0376 174.327L70.265 170.456C70.4873 170.322 70.6807 170.147 70.8341 169.939C70.9875 169.731 71.0978 169.495 71.1587 169.245C71.2196 168.995 71.2299 168.735 71.1889 168.481C71.148 168.226 71.0566 167.983 70.9201 167.764L64.0798 158.574C63.4093 157.673 62.4463 157.029 61.3527 156.749C60.2591 156.469 59.1016 156.571 58.0749 157.037C57.8431 157.141 57.62 157.262 57.4076 157.4C56.4022 158.059 55.6757 159.06 55.366 160.214C55.0563 161.368 55.185 162.594 55.7276 163.66Z" fill="#2F2E41" />
		<path d="M91.1949 195.277V217.697C91.1957 218.215 91.4034 218.71 91.7724 219.076C92.1414 219.442 92.6417 219.647 93.1636 219.648H97.3202C97.842 219.647 98.3423 219.441 98.7113 219.076C99.0803 218.71 99.2879 218.215 99.2887 217.697V195.277H91.1949Z" fill="#4F46E5" />
		<path d="M66.968 193.945V194.532C66.9684 194.842 67.0769 195.143 67.2752 195.382C67.4735 195.622 67.7493 195.787 68.056 195.848C68.0979 195.854 68.1401 195.863 68.1822 195.866C68.2272 195.869 68.2723 195.872 68.3204 195.872H114.653C115.396 195.872 116.11 195.579 116.636 195.058C117.163 194.537 117.459 193.831 117.46 193.094V174.392C117.459 173.655 117.163 172.949 116.636 172.428C116.11 171.907 115.396 171.614 114.653 171.614H80.3692C79.6258 171.615 78.913 171.908 78.3873 172.429C77.8616 172.95 77.5659 173.656 77.5651 174.392V192.605H68.3204C67.9617 192.605 67.6177 192.747 67.3641 192.998C67.1105 193.249 66.968 193.59 66.968 193.945Z" fill="white" />
		<path d="M66.968 193.945V194.532C66.9684 194.842 67.0769 195.143 67.2752 195.382C67.4735 195.622 67.7493 195.787 68.056 195.848C68.0979 195.854 68.1401 195.863 68.1822 195.866C68.2272 195.869 68.2723 195.872 68.3204 195.872H114.653C115.396 195.872 116.11 195.579 116.636 195.058C117.163 194.537 117.459 193.831 117.46 193.094V174.392C117.459 173.655 117.163 172.949 116.636 172.428C116.11 171.907 115.396 171.614 114.653 171.614H80.3692C79.6258 171.615 78.913 171.908 78.3873 172.429C77.8616 172.95 77.5659 173.656 77.5651 174.392V192.605H68.3204C67.9617 192.605 67.6177 192.747 67.3641 192.998C67.1105 193.249 66.968 193.59 66.968 193.945ZM67.5691 194.532V193.945C67.5691 193.748 67.6483 193.559 67.7892 193.419C67.9301 193.28 68.1212 193.201 68.3204 193.201H78.1662V174.392C78.1671 173.814 78.3994 173.259 78.8124 172.85C79.2254 172.441 79.7852 172.21 80.3692 172.21H114.653C115.237 172.21 115.798 172.44 116.211 172.849C116.625 173.258 116.858 173.813 116.859 174.392V193.094C116.858 193.673 116.625 194.228 116.211 194.637C115.798 195.046 115.237 195.276 114.653 195.277H68.3204C68.1212 195.277 67.9301 195.198 67.7892 195.058C67.6483 194.919 67.5691 194.73 67.5691 194.532Z" fill="#3F3D56" />
		<path d="M97.5121 186.034C98.7886 186.034 99.8233 185.008 99.8233 183.743C99.8233 182.479 98.7886 181.453 97.5121 181.453C96.2356 181.453 95.2009 182.479 95.2009 183.743C95.2009 185.008 96.2356 186.034 97.5121 186.034Z" fill="#4F46E5" />
		<path d="M78.1753 192.921H77.5742V195.601H78.1753V192.921Z" fill="#3F3D56" />
		<path d="M322.13 12.2703H162.196C162.098 12.2703 162.004 12.2316 161.934 12.1628C161.865 12.094 161.826 12.0007 161.826 11.9034C161.826 11.8062 161.865 11.7129 161.934 11.6441C162.004 11.5753 162.098 11.5366 162.196 11.5366H322.13C322.228 11.5366 322.322 11.5753 322.392 11.6441C322.461 11.7129 322.5 11.8062 322.5 11.9034C322.5 12.0007 322.461 12.094 322.392 12.1628C322.322 12.2316 322.228 12.2703 322.13 12.2703Z" fill="#CACACA" />
		<path d="M176.258 7.13465C178.107 7.13465 179.606 5.64943 179.606 3.81732C179.606 1.98522 178.107 0.5 176.258 0.5C174.409 0.5 172.91 1.98522 172.91 3.81732C172.91 5.64943 174.409 7.13465 176.258 7.13465Z" fill="#3F3D56" />
		<path d="M187.824 7.13465C189.673 7.13465 191.172 5.64943 191.172 3.81732C191.172 1.98522 189.673 0.5 187.824 0.5C185.975 0.5 184.476 1.98522 184.476 3.81732C184.476 5.64943 185.975 7.13465 187.824 7.13465Z" fill="#3F3D56" />
		<path d="M199.39 7.13465C201.239 7.13465 202.738 5.64943 202.738 3.81732C202.738 1.98522 201.239 0.5 199.39 0.5C197.541 0.5 196.042 1.98522 196.042 3.81732C196.042 5.64943 197.541 7.13465 199.39 7.13465Z" fill="#3F3D56" />
		<path d="M192.677 68.8285C188.787 68.8285 184.983 67.6854 181.749 65.5437C178.514 63.402 175.992 60.3579 174.503 56.7964C173.014 53.2348 172.625 49.3158 173.384 45.5349C174.143 41.754 176.016 38.281 178.767 35.5551C181.519 32.8292 185.024 30.9728 188.839 30.2207C192.655 29.4686 196.611 29.8546 200.205 31.3298C203.8 32.8051 206.872 35.3033 209.033 38.5086C211.195 41.7139 212.349 45.4823 212.349 49.3372C212.343 54.5048 210.268 59.4591 206.581 63.1131C202.893 66.7672 197.893 68.8226 192.677 68.8285ZM192.677 30.5799C188.933 30.5799 185.273 31.6799 182.16 33.741C179.047 35.8021 176.62 38.7316 175.187 42.1591C173.755 45.5866 173.38 49.3581 174.11 52.9967C174.841 56.6353 176.644 59.9776 179.291 62.6009C181.939 65.2242 185.312 67.0107 188.984 67.7344C192.656 68.4582 196.463 68.0867 199.922 66.667C203.381 65.2473 206.338 62.8431 208.418 59.7584C210.498 56.6737 211.608 53.0471 211.608 49.3373C211.602 44.3642 209.606 39.5965 206.057 36.08C202.508 32.5636 197.696 30.5855 192.677 30.5799Z" fill="#CACACA" />
		<path d="M191.581 166.554C196.634 166.554 200.729 162.496 200.729 157.49C200.729 152.484 196.634 148.426 191.581 148.426C186.529 148.426 182.434 152.484 182.434 157.49C182.434 162.496 186.529 166.554 191.581 166.554Z" fill="#E4E4E4" />
		<path d="M186.5 160.849L186.49 160.51C187.126 160.493 187.687 160.453 188.108 160.148C188.228 160.057 188.326 159.941 188.396 159.809C188.466 159.677 188.507 159.531 188.515 159.382C188.523 159.29 188.509 159.199 188.475 159.114C188.44 159.029 188.387 158.952 188.318 158.891C188.159 158.796 187.977 158.744 187.791 158.743C187.604 158.741 187.421 158.789 187.26 158.882L186.978 159.011L187.52 155.083L187.859 155.129L187.397 158.47C187.586 158.4 187.79 158.379 187.989 158.407C188.188 158.436 188.377 158.513 188.539 158.633C188.647 158.727 188.733 158.844 188.788 158.976C188.843 159.108 188.867 159.251 188.857 159.393C188.847 159.594 188.793 159.79 188.698 159.968C188.604 160.145 188.471 160.3 188.31 160.422C187.769 160.814 187.065 160.834 186.5 160.849Z" fill="#2F2E41" />
		<path d="M191.375 155.417H189.534V155.756H191.375V155.417Z" fill="#2F2E41" />
		<path d="M185.563 155.417H183.722V155.756H185.563V155.417Z" fill="#2F2E41" />
		<path d="M190.204 151.636C187.997 153.137 184.608 152.31 183.607 149.774C183.363 149.157 183.254 148.496 183.288 147.834C183.321 147.172 183.497 146.525 183.802 145.935C184.168 145.318 184.665 144.787 185.26 144.381C185.855 143.975 186.533 143.702 187.246 143.584C189.138 143.195 191.095 143.717 192.825 144.475C192.887 144.507 192.958 144.52 193.028 144.511C193.098 144.502 193.163 144.472 193.215 144.425C194.867 143.12 197.268 143.686 198.963 144.599C200.795 145.618 202.344 147.071 203.473 148.827C204.625 150.568 205.344 152.555 205.573 154.624C205.782 156.861 205.414 159.113 204.502 161.169C203.59 163.225 202.165 165.018 200.361 166.378C200.033 166.621 200.354 167.175 200.686 166.929C202.508 165.595 203.97 163.837 204.943 161.811C205.917 159.785 206.372 157.552 206.268 155.31C206.165 153.068 205.505 150.886 204.349 148.956C203.192 147.027 201.574 145.409 199.637 144.246C197.604 143.035 194.772 142.384 192.76 143.974L193.15 143.924C191.42 143.166 189.524 142.631 187.617 142.879C185.997 143.09 184.406 143.86 183.477 145.231C183.069 145.86 182.802 146.568 182.692 147.308C182.583 148.047 182.634 148.802 182.843 149.52C183.047 150.231 183.414 150.884 183.916 151.43C184.418 151.975 185.041 152.398 185.736 152.664C186.515 152.972 187.357 153.09 188.192 153.007C189.026 152.924 189.828 152.643 190.529 152.187C190.869 151.956 190.547 151.403 190.204 151.636V151.636Z" fill="#2F2E41" />
		<path d="M192.221 61.2161C197.208 61.2161 201.251 57.2103 201.251 52.2689C201.251 47.3276 197.208 43.3218 192.221 43.3218C187.234 43.3218 183.191 47.3276 183.191 52.2689C183.191 57.2103 187.234 61.2161 192.221 61.2161Z" fill="#E4E4E4" />
		<path d="M190.09 56.0247C189.505 56.0086 188.776 55.9884 188.215 55.5822C188.048 55.4563 187.91 55.2957 187.813 55.1117C187.715 54.9276 187.659 54.7246 187.648 54.5169C187.638 54.3692 187.663 54.2212 187.72 54.0845C187.777 53.9477 187.865 53.8259 187.978 53.7286C188.145 53.6049 188.341 53.5247 188.547 53.4953C188.754 53.4658 188.964 53.488 189.16 53.5599L188.682 50.0994L189.033 50.0518L189.595 54.1201L189.302 53.9869C189.135 53.8907 188.945 53.8409 188.753 53.8426C188.56 53.8443 188.371 53.8975 188.206 53.9965C188.135 54.06 188.08 54.1388 188.044 54.2269C188.009 54.315 187.994 54.41 188.002 54.5045C188.011 54.6592 188.053 54.8102 188.126 54.9472C188.198 55.0843 188.3 55.2042 188.424 55.2989C188.86 55.615 189.441 55.6557 190.1 55.674L190.09 56.0247Z" fill="#2F2E41" />
		<path d="M186.947 50.3979H185.04V50.7488H186.947V50.3979Z" fill="#2F2E41" />
		<path d="M192.967 50.3979H191.06V50.7488H192.967V50.3979Z" fill="#2F2E41" />
		<path d="M193.059 45.6552C191.962 47.0768 190.22 48.0304 188.379 47.8046C187.525 47.7177 186.721 47.3654 186.081 46.798C185.441 46.2307 184.999 45.4773 184.818 44.6459C184.659 43.8264 184.702 42.9813 184.942 42.1816C185.182 41.382 185.613 40.6513 186.198 40.0511C187.439 38.7581 189.214 38.0626 190.972 37.8241C192.634 37.6303 194.318 37.7865 195.915 38.2824C197.512 38.7783 198.985 39.6027 200.238 40.7016C201.502 41.7791 202.512 43.1193 203.194 44.627C203.851 46.1235 204.164 47.7461 204.11 49.3773C204.066 50.9997 203.691 52.5964 203.007 54.0709C202.323 55.5455 201.344 56.8672 200.129 57.9562C199.824 58.2209 199.504 58.469 199.172 58.6993C198.891 58.8943 198.626 58.4381 198.904 58.2449C200.141 57.3493 201.183 56.2153 201.968 54.911C202.752 53.6066 203.263 52.1587 203.469 50.6541C203.7 49.1463 203.597 47.6068 203.167 46.1424C202.737 44.678 201.991 43.3238 200.981 42.1736C199.96 41.0207 198.718 40.0809 197.327 39.409C195.936 38.7371 194.423 38.3467 192.878 38.2604C189.771 38.1262 185.888 39.5007 185.307 42.9278C185.046 44.4638 185.625 46.0784 187.046 46.8475C187.798 47.2224 188.646 47.3676 189.481 47.2645C190.317 47.1615 191.103 46.8148 191.739 46.2686C192.059 46.0093 192.348 45.7143 192.6 45.3895C192.805 45.1241 193.267 45.3859 193.059 45.6552V45.6552Z" fill="#2F2E41" />
		<path d="M192.677 120.244C188.787 120.244 184.983 119.101 181.749 116.96C178.514 114.818 175.992 111.774 174.503 108.212C173.014 104.651 172.625 100.732 173.384 96.9509C174.143 93.17 176.016 89.697 178.767 86.9711C181.519 84.2452 185.024 82.3888 188.839 81.6368C192.655 80.8847 196.611 81.2706 200.205 82.7459C203.8 84.2211 206.872 86.7193 209.033 89.9246C211.195 93.1299 212.349 96.8983 212.349 100.753C212.343 105.921 210.268 110.875 206.581 114.529C202.893 118.183 197.893 120.239 192.677 120.244ZM192.677 81.9959C188.933 81.9959 185.273 83.096 182.16 85.157C179.047 87.2181 176.62 90.1477 175.187 93.5751C173.755 97.0026 173.38 100.774 174.11 104.413C174.841 108.051 176.644 111.394 179.291 114.017C181.939 116.64 185.312 118.427 188.984 119.15C192.656 119.874 196.463 119.503 199.922 118.083C203.381 116.663 206.338 114.259 208.418 111.174C210.498 108.09 211.608 104.463 211.608 100.753C211.602 95.7802 209.606 91.0125 206.057 87.496C202.508 83.9795 197.696 82.0015 192.677 81.9959V81.9959Z" fill="#CACACA" />
		<path d="M192.677 175.109C188.787 175.109 184.983 173.966 181.749 171.824C178.514 169.683 175.992 166.639 174.503 163.077C173.014 159.516 172.625 155.596 173.384 151.816C174.143 148.035 176.016 144.562 178.768 141.836C181.519 139.11 185.024 137.254 188.84 136.501C192.655 135.749 196.611 136.135 200.205 137.611C203.8 139.086 206.872 141.584 209.033 144.789C211.195 147.995 212.349 151.763 212.349 155.618C212.343 160.786 210.268 165.74 206.58 169.394C202.893 173.048 197.893 175.103 192.677 175.109ZM192.677 136.861C188.933 136.861 185.273 137.961 182.16 140.022C179.047 142.083 176.62 145.012 175.187 148.44C173.755 151.867 173.38 155.639 174.11 159.277C174.841 162.916 176.644 166.258 179.291 168.882C181.939 171.505 185.312 173.291 188.984 174.015C192.656 174.739 196.463 174.367 199.922 172.948C203.381 171.528 206.337 169.124 208.418 166.039C210.498 162.955 211.608 159.328 211.608 155.618C211.602 150.645 209.606 145.877 206.057 142.361C202.508 138.844 197.696 136.866 192.677 136.861Z" fill="#CACACA" />
		<path d="M191.338 111.872C196.498 111.872 200.68 107.728 200.68 102.616C200.68 97.5039 196.498 93.3596 191.338 93.3596C186.179 93.3596 181.996 97.5039 181.996 102.616C181.996 107.728 186.179 111.872 191.338 111.872Z" fill="#E4E4E4" />
		<path d="M188.229 106.502C187.624 106.485 186.87 106.464 186.29 106.044C186.117 105.914 185.975 105.747 185.873 105.557C185.772 105.367 185.714 105.157 185.703 104.942C185.693 104.789 185.718 104.636 185.777 104.494C185.836 104.353 185.928 104.227 186.044 104.126C186.217 103.998 186.42 103.915 186.633 103.885C186.847 103.854 187.065 103.877 187.267 103.952L186.773 100.372L187.136 100.322L187.717 104.531L187.414 104.393C187.242 104.294 187.045 104.242 186.846 104.244C186.647 104.246 186.451 104.301 186.281 104.403C186.207 104.469 186.15 104.551 186.113 104.642C186.076 104.733 186.062 104.831 186.069 104.929C186.078 105.089 186.122 105.245 186.197 105.387C186.272 105.529 186.378 105.653 186.506 105.751C186.958 106.078 187.558 106.12 188.24 106.139L188.229 106.502Z" fill="#2F2E41" />
		<path d="M184.978 100.68H183.005V101.043H184.978V100.68Z" fill="#2F2E41" />
		<path d="M191.206 100.68H189.233V101.043H191.206V100.68Z" fill="#2F2E41" />
		<path d="M191.809 112.161L198.27 109.676C199.327 109.27 200.389 108.876 201.44 108.455C201.891 108.3 202.305 108.058 202.661 107.743C202.97 107.418 203.181 107.014 203.269 106.576C203.445 105.613 203.501 104.631 203.437 103.654C203.424 102.606 203.337 101.56 203.176 100.525C202.894 98.5784 202.231 96.7054 201.225 95.0107C199.413 92.0646 196.291 89.8482 192.7 90.0251C191.012 90.0831 189.397 90.719 188.13 91.8244C188.001 91.977 187.856 92.1159 187.698 92.2387C187.588 92.2795 187.469 92.2874 187.355 92.2616C187.204 92.252 187.053 92.2446 186.902 92.2396C186.378 92.2177 185.853 92.2395 185.333 92.3048C184.385 92.4062 183.487 92.7759 182.745 93.3697C182.42 93.6255 182.15 93.9421 181.949 94.3015C181.748 94.6608 181.62 95.0559 181.573 95.4641C181.548 95.8431 181.612 96.2227 181.758 96.5736C181.905 96.9245 182.131 97.2373 182.419 97.488C183.19 98.1317 184.289 97.9055 185.214 97.8569L188.602 97.6791L190.318 97.589C190.672 97.5704 190.671 98.115 190.318 98.1335L185.756 98.373C185.018 98.4437 184.276 98.4734 183.534 98.4622C182.97 98.4369 182.432 98.2223 182.007 97.8537C181.62 97.501 181.331 97.0547 181.169 96.5584C181.008 96.0622 180.979 95.5329 181.085 95.0222C181.225 94.4732 181.481 93.9595 181.834 93.5145C182.188 93.0694 182.632 92.7029 183.138 92.4385C184.472 91.6926 186.066 91.6211 187.56 91.7314L187.365 91.8111C189.055 90.0146 191.642 89.2561 194.071 89.5215C196.636 89.8018 198.918 91.2196 200.557 93.1583C202.384 95.3199 203.38 98.0152 203.767 100.787C203.969 102.283 204.035 103.794 203.965 105.302C203.968 105.967 203.853 106.628 203.626 107.254C203.367 107.863 202.898 108.361 202.303 108.66C201.62 108.986 200.919 109.271 200.202 109.515L197.821 110.43L193.145 112.229L191.955 112.686C191.625 112.813 191.482 112.287 191.809 112.161V112.161Z" fill="#2F2E41" />
		<path d="M199.129 90.8447C199.129 90.2883 199.296 89.7444 199.608 89.2818C199.92 88.8191 200.363 88.4586 200.882 88.2456C201.401 88.0327 201.972 87.977 202.522 88.0856C203.073 88.1941 203.579 88.462 203.976 88.8555C204.373 89.2489 204.644 89.7502 204.753 90.2959C204.863 90.8416 204.807 91.4072 204.592 91.9213C204.377 92.4353 204.013 92.8747 203.546 93.1838C203.079 93.493 202.53 93.658 201.969 93.658C201.216 93.6571 200.494 93.3605 199.962 92.8331C199.43 92.3057 199.13 91.5906 199.129 90.8447ZM199.679 90.8447C199.679 91.2934 199.813 91.7321 200.065 92.1052C200.316 92.4783 200.674 92.769 201.092 92.9408C201.511 93.1125 201.971 93.1574 202.415 93.0699C202.859 92.9823 203.267 92.7663 203.588 92.449C203.908 92.1317 204.126 91.7274 204.214 91.2873C204.303 90.8472 204.257 90.3911 204.084 89.9765C203.911 89.562 203.617 89.2076 203.241 88.9583C202.864 88.7091 202.421 88.576 201.969 88.576C201.361 88.5767 200.779 88.8159 200.35 89.2412C199.921 89.6666 199.679 90.2432 199.679 90.8447Z" fill="#2F2E41" />
		<path d="M307.904 57.5185H243.255C242.447 57.5185 241.672 57.2007 241.101 56.6348C240.53 56.069 240.209 55.3015 240.209 54.5013C240.209 53.7011 240.53 52.9337 241.101 52.3678C241.672 51.802 242.447 51.4841 243.255 51.4841H307.904C308.304 51.4841 308.7 51.5622 309.07 51.7138C309.439 51.8654 309.775 52.0877 310.058 52.3678C310.34 52.648 310.565 52.9806 310.718 53.3467C310.871 53.7128 310.95 54.1051 310.95 54.5013C310.95 54.8976 310.871 55.2899 310.718 55.656C310.565 56.022 310.34 56.3547 310.058 56.6348C309.775 56.915 309.439 57.1373 309.07 57.2889C308.7 57.4405 308.304 57.5185 307.904 57.5185Z" fill="#E4E4E4" />
		<path d="M287.057 47.1904H243.255C242.447 47.1904 241.672 46.8725 241.101 46.3067C240.53 45.7409 240.209 44.9734 240.209 44.1732C240.209 43.373 240.53 42.6056 241.101 42.0397C241.672 41.4739 242.447 41.156 243.255 41.156H287.057C287.457 41.156 287.853 41.2341 288.223 41.3857C288.592 41.5373 288.928 41.7596 289.21 42.0397C289.493 42.3199 289.717 42.6525 289.871 43.0186C290.024 43.3846 290.102 43.777 290.102 44.1732C290.102 44.5694 290.024 44.9618 289.871 45.3279C289.717 45.6939 289.493 46.0265 289.21 46.3067C288.928 46.5869 288.592 46.8091 288.223 46.9608C287.853 47.1124 287.457 47.1904 287.057 47.1904Z" fill="#E4E4E4" />
		<path d="M307.904 108.935H243.255C242.447 108.935 241.672 108.617 241.101 108.051C240.53 107.485 240.209 106.718 240.209 105.917C240.209 105.117 240.53 104.35 241.101 103.784C241.672 103.218 242.447 102.9 243.255 102.9H307.904C308.712 102.9 309.487 103.218 310.058 103.784C310.629 104.35 310.95 105.117 310.95 105.917C310.95 106.718 310.629 107.485 310.058 108.051C309.487 108.617 308.712 108.935 307.904 108.935Z" fill="#E4E4E4" />
		<path d="M287.057 98.6064H243.255C242.448 98.6056 241.674 98.2873 241.104 97.7215C240.533 97.1558 240.213 96.3889 240.213 95.5892C240.213 94.7896 240.533 94.0227 241.104 93.4569C241.674 92.8912 242.448 92.5729 243.255 92.572H287.057C287.865 92.572 288.639 92.8899 289.21 93.4557C289.782 94.0216 290.102 94.789 290.102 95.5892C290.102 96.3895 289.782 97.1569 289.21 97.7227C288.639 98.2886 287.865 98.6064 287.057 98.6064Z" fill="#E4E4E4" />
		<path d="M307.904 163.799H243.255C242.447 163.799 241.672 163.481 241.101 162.916C240.53 162.35 240.209 161.582 240.209 160.782C240.209 159.982 240.53 159.214 241.101 158.649C241.672 158.083 242.447 157.765 243.255 157.765H307.904C308.712 157.765 309.487 158.083 310.058 158.649C310.629 159.214 310.95 159.982 310.95 160.782C310.95 161.582 310.629 162.35 310.058 162.916C309.487 163.481 308.712 163.799 307.904 163.799Z" fill="#E4E4E4" />
		<path d="M287.057 153.471H243.255C242.447 153.471 241.672 153.153 241.101 152.587C240.53 152.022 240.209 151.254 240.209 150.454C240.209 149.654 240.53 148.886 241.101 148.32C241.672 147.755 242.447 147.437 243.255 147.437H287.057C287.865 147.437 288.639 147.755 289.21 148.32C289.782 148.886 290.102 149.654 290.102 150.454C290.102 151.254 289.782 152.022 289.21 152.587C288.639 153.153 287.865 153.471 287.057 153.471Z" fill="#E4E4E4" />
		<path d="M141.923 230.5H0.870217C0.772029 230.5 0.677863 230.461 0.608434 230.393C0.539005 230.324 0.5 230.23 0.5 230.133C0.5 230.036 0.539005 229.943 0.608434 229.874C0.677863 229.805 0.772029 229.766 0.870217 229.766H141.923C142.021 229.766 142.115 229.805 142.185 229.874C142.254 229.943 142.293 230.036 142.293 230.133C142.293 230.23 142.254 230.324 142.185 230.393C142.115 230.461 142.021 230.5 141.923 230.5Z" fill="#3F3D56" />
	</g>
	<defs>
		<clipPath id="clip0_182_640">
			<rect width="322" height="230" fill="white" transform="translate(0.5 0.5)" />
		</clipPath>
	</defs>
</svg>
