<svg viewBox="0 0 323 231" fill="none" xmlns="http://www.w3.org/2000/svg">
	<g clip-path="url(#clip0_182_465)">
		<path d="M25.6344 32.3083C33.0988 32.3083 39.1499 26.2516 39.1499 18.7804C39.1499 11.3091 33.0988 5.25244 25.6344 5.25244C18.1701 5.25244 12.119 11.3091 12.119 18.7804C12.119 26.2516 18.1701 32.3083 25.6344 32.3083Z" fill="#4f46e5" />
		<path d="M109.195 221.31C119.946 225.768 131.361 228.412 142.976 229.135C148.418 229.474 153.962 229.491 159.376 228.771C164.12 228.141 168.938 226.847 172.892 224.047C176.844 221.201 179.627 217.012 180.72 212.263C181.929 207.257 181.42 202.013 179.693 197.191C177.91 192.2 175.092 187.643 171.424 183.82C168.136 180.451 163.53 177.387 158.605 177.963C153.87 178.518 150.427 182.349 149.166 186.78C147.655 192.094 149.394 197.715 151.753 202.499C155.754 210.613 162.174 217.424 169.779 222.267C177.428 227.168 186.223 229.989 195.294 230.451C204.383 230.86 214.159 228.751 221.321 222.873C225.093 219.804 227.786 215.61 229.008 210.901C230.28 205.932 229.947 200.684 228.846 195.717C226.457 184.933 220.147 175.663 216.493 165.34C215.587 162.821 214.89 160.232 214.408 157.599C214.287 156.924 213.259 157.21 213.379 157.883C215.268 168.502 221.248 177.645 225.174 187.534C228.749 196.542 230.878 207.601 225.581 216.396C220.816 224.308 211.353 228.164 202.528 229.149C193.899 230.111 185.064 228.564 177.154 225.025C169.191 221.464 162.056 215.916 156.879 208.868C154.066 205.037 151.642 200.697 150.399 196.087C149.127 191.368 149.425 186.023 152.79 182.211C154.276 180.477 156.344 179.346 158.605 179.031C160.954 178.737 163.306 179.396 165.371 180.494C169.803 182.852 173.102 186.951 175.647 191.189C178.276 195.569 180.129 200.532 180.313 205.678C180.484 210.462 179.23 215.366 176.357 219.239C170.425 227.234 159.276 228.204 150.127 228.266C138.912 228.335 127.76 226.594 117.1 223.108C114.524 222.266 111.983 221.323 109.479 220.28C108.845 220.017 108.569 221.05 109.195 221.31H109.195Z" fill="#E6E6E6" />
		<path d="M81.4584 186.66L78.593 182.258C78.2591 181.743 78.1426 181.117 78.2692 180.517C78.3957 179.917 78.755 179.391 79.2682 179.056L96.7219 165.476C97.2359 165.142 97.8613 165.025 98.461 165.152C99.0607 165.279 99.5857 165.638 99.9209 166.152L102.786 170.555C103.12 171.069 103.237 171.695 103.11 172.295C102.984 172.896 102.624 173.421 102.111 173.757L84.6574 187.336C84.1434 187.67 83.518 187.787 82.9183 187.66C82.3185 187.534 81.7935 187.174 81.4584 186.66Z" fill="#2F2E41" />
		<path d="M79.287 179.076L83.8904 176.55C84.4282 176.256 85.0606 176.187 85.649 176.359C86.2374 176.531 86.7336 176.93 87.0288 177.467L99.2514 199.51C99.5454 200.048 99.614 200.681 99.4423 201.27C99.2705 201.859 98.8724 202.356 98.3353 202.651L93.7319 205.177C93.1941 205.471 92.5617 205.54 91.9733 205.368C91.3849 205.196 90.8887 204.797 90.5935 204.26L78.3709 182.217C78.0769 181.679 78.0083 181.046 78.18 180.457C78.3518 179.868 78.7499 179.371 79.287 179.076Z" fill="#2F2E41" />
		<path d="M47.2903 138.513C46.7039 138.512 46.1398 138.288 45.7121 137.887C45.2845 137.485 45.0252 136.936 44.9869 136.35L44.6438 131.107C44.6037 130.495 44.8083 129.891 45.2126 129.43C45.6169 128.969 46.1878 128.687 46.7996 128.647L87.8393 125.957C88.4863 125.914 89.1352 126 89.7491 126.208C90.3629 126.417 90.9297 126.745 91.4171 127.172C91.9045 127.6 92.3029 128.12 92.5896 128.702C92.8763 129.284 93.0457 129.917 93.0881 130.564C93.1304 131.212 93.045 131.861 92.8365 132.476C92.6281 133.09 92.3008 133.658 91.8733 134.146C91.4459 134.633 90.9266 135.032 90.3451 135.319C89.7637 135.606 89.1314 135.776 88.4845 135.818L47.4449 138.508C47.3932 138.511 47.3417 138.513 47.2903 138.513Z" fill="#4f46e5" />
		<path d="M55.3827 139.189C54.7849 139.188 54.2106 138.956 53.7802 138.54C53.3497 138.125 53.0965 137.559 53.0735 136.961L52.781 129.13C52.7697 128.826 52.8182 128.523 52.9239 128.239C53.0295 127.954 53.1902 127.692 53.3967 127.47C53.6032 127.247 53.8515 127.067 54.1275 126.94C54.4034 126.814 54.7016 126.743 55.005 126.731L88.7531 125.469C89.3658 125.446 89.9625 125.668 90.412 126.085C90.8614 126.503 91.1268 127.082 91.1497 127.695L91.4422 135.526C91.4535 135.83 91.405 136.133 91.2993 136.418C91.1937 136.703 91.033 136.964 90.8265 137.187C90.62 137.409 90.3717 137.589 90.0957 137.716C89.8198 137.842 89.5216 137.914 89.2182 137.925L55.4701 139.187C55.4409 139.189 55.4116 139.189 55.3827 139.189Z" fill="#CCCCCC" />
		<path d="M109.572 221.987V204.991C109.572 190.156 103.106 175.928 91.5675 166.616C82.9434 159.656 70.4519 154.451 52.5573 155.614L59.3743 128.321L0.500027 168.64L58.1349 208.96L52.2474 183.218C52.2474 183.218 88.1917 176.394 109.572 221.987Z" fill="#3F3D56" />
		<path d="M68.3983 195.123L64.1525 192.033C63.6572 191.672 63.3253 191.128 63.2296 190.522C63.1339 189.916 63.2823 189.297 63.6422 188.801L89.3719 153.381C89.7329 152.885 90.2757 152.553 90.8811 152.457C91.4865 152.361 92.1051 152.51 92.6013 152.87L96.8471 155.96C97.3424 156.321 97.6743 156.864 97.77 157.47C97.8657 158.076 97.7173 158.696 97.3574 159.192L71.6277 194.612C71.2667 195.108 70.724 195.44 70.1185 195.536C69.5131 195.632 68.8945 195.483 68.3983 195.123Z" fill="#2F2E41" />
		<path d="M63.6669 188.812L67.0673 184.809C67.4649 184.342 68.0313 184.052 68.6422 184.003C69.2532 183.953 69.8587 184.149 70.3261 184.545L89.6 200.774C90.0665 201.172 90.3563 201.739 90.4057 202.351C90.4551 202.962 90.2602 203.568 89.8637 204.036L86.4632 208.039C86.0656 208.506 85.4993 208.796 84.8883 208.845C84.2774 208.895 83.6718 208.7 83.2044 208.303L63.9305 192.074C63.464 191.676 63.1743 191.109 63.1249 190.498C63.0754 189.886 63.2703 189.28 63.6669 188.812Z" fill="#2F2E41" />
		<path d="M86.9571 117.255C96.975 117.255 105.096 109.127 105.096 99.0993C105.096 89.072 96.975 80.9434 86.9571 80.9434C76.9391 80.9434 68.8179 89.072 68.8179 99.0993C68.8179 109.127 76.9391 117.255 86.9571 117.255Z" fill="#4f46e5" />
		<path d="M78.9777 107.096C78.3636 107.109 77.754 106.99 77.1897 106.748C76.8087 106.567 76.4719 106.304 76.2028 105.979C75.9337 105.654 75.7388 105.275 75.6318 104.866C75.5503 104.577 75.5367 104.273 75.592 103.978C75.6474 103.683 75.7701 103.404 75.9508 103.165C76.4245 102.556 77.2425 102.267 78.2049 102.341L75.8228 95.666L76.4926 95.4265L79.2931 103.273L78.6617 103.13C77.9297 102.964 76.9802 103.001 76.5119 103.602C76.3984 103.758 76.3224 103.937 76.2895 104.127C76.2566 104.316 76.2679 104.511 76.3224 104.695C76.4037 104.999 76.5494 105.281 76.7495 105.523C76.9497 105.766 77.1996 105.962 77.4823 106.098C78.4723 106.546 79.6312 106.387 80.9335 106.15L81.0603 106.851C80.3748 106.995 79.6778 107.077 78.9777 107.096Z" fill="#2F2E41" />
		<path d="M72.5364 96.9763L68.7871 97.7646L68.9333 98.4613L72.6826 97.673L72.5364 96.9763Z" fill="#2F2E41" />
		<path d="M84.3707 94.4873L80.6214 95.2756L80.7676 95.9723L84.5169 95.184L84.3707 94.4873Z" fill="#2F2E41" />
		<path d="M102.103 177.022H71.5158C70.7142 177.021 69.9458 176.702 69.379 176.134C68.8123 175.567 68.4935 174.798 68.4926 173.996L74.8961 124.845C74.9012 124.046 75.2219 123.282 75.788 122.719C76.3542 122.157 77.1199 121.841 77.9178 121.842H88.7728C93.1086 121.847 97.2653 123.573 100.331 126.642C103.397 129.71 105.122 133.871 105.126 138.211V173.996C105.126 174.798 104.807 175.567 104.24 176.134C103.673 176.702 102.905 177.021 102.103 177.022Z" fill="#CCCCCC" />
		<path d="M54.3378 156.5C53.8914 156.5 53.4546 156.371 53.0797 156.129C52.7048 155.886 52.408 155.54 52.2249 155.133L50.0763 150.339C49.952 150.061 49.8835 149.762 49.8747 149.459C49.8659 149.155 49.917 148.852 50.025 148.568C50.133 148.284 50.2958 148.024 50.5042 147.803C50.7126 147.582 50.9624 147.405 51.2394 147.28L88.7641 130.431C89.3556 130.166 89.9936 130.019 90.6416 130C91.2895 129.982 91.9349 130.091 92.5408 130.322C93.1466 130.552 93.7011 130.9 94.1726 131.346C94.6441 131.791 95.0234 132.325 95.2887 132.917C95.554 133.509 95.7003 134.148 95.7191 134.796C95.7379 135.445 95.6288 136.091 95.3982 136.697C95.1676 137.304 94.8199 137.859 94.375 138.33C93.9301 138.802 93.3967 139.182 92.8052 139.448L55.2805 156.297C54.9841 156.43 54.6628 156.5 54.3378 156.5Z" fill="#4f46e5" />
		<path d="M65.283 154.025C64.8367 154.025 64.3998 153.896 64.025 153.654C63.6501 153.411 63.3533 153.065 63.1702 152.658L59.5002 144.469C59.25 143.909 59.2319 143.273 59.45 142.699C59.668 142.126 60.1044 141.663 60.6633 141.411L91.4765 127.575C91.7535 127.451 92.0523 127.382 92.3558 127.374C92.6592 127.365 92.9615 127.416 93.2452 127.524C93.529 127.632 93.7887 127.795 94.0095 128.004C94.2303 128.212 94.4079 128.462 94.5321 128.739L98.2021 136.928C98.3264 137.205 98.3949 137.504 98.4037 137.808C98.4125 138.112 98.3614 138.414 98.2534 138.698C98.1454 138.982 97.9826 139.242 97.7742 139.463C97.5658 139.684 97.316 139.862 97.039 139.986L66.2258 153.822C65.9293 153.955 65.608 154.025 65.283 154.025Z" fill="#CCCCCC" />
		<path d="M82.9323 87.7158C79.9789 86.6269 77.5513 89.4958 74.8752 90.1526C72.3149 90.781 69.5566 89.3027 68.1891 87.1481C66.5937 84.6344 66.9889 81.371 68.4403 78.8895C70.0298 76.1717 72.8606 74.5041 75.8608 73.7756C79.2995 72.9408 82.8823 73.3514 86.276 74.1993C89.5311 74.9622 92.687 76.0996 95.6809 77.5886C98.3874 78.9908 100.953 80.9089 102.535 83.5657C103.972 85.9801 104.683 88.9852 103.972 91.7515C103.58 93.1796 102.828 94.4824 101.787 95.5345C100.715 96.6696 99.4876 97.6537 98.4886 98.8578C96.978 100.678 95.9629 103.662 97.4522 105.816C97.7751 106.287 98.2089 106.672 98.7152 106.936C99.3235 107.253 99.8637 106.332 99.2538 106.014C98.1826 105.455 97.7938 104.322 97.8226 103.167C97.8801 101.855 98.381 100.602 99.2431 99.613C100.29 98.3543 101.583 97.3354 102.688 96.1322C103.757 95.0109 104.539 93.6476 104.969 92.1586C105.754 89.2784 105.14 86.1415 103.75 83.5467C102.246 80.7387 99.7251 78.6185 96.9817 77.0775C93.996 75.4006 90.6778 74.2767 87.3834 73.3842C83.8484 72.4266 80.1364 71.8873 76.4987 72.55C73.3454 73.1245 70.2637 74.6482 68.2806 77.2263C66.4295 79.6328 65.5453 82.9127 66.4404 85.874C66.8653 87.2147 67.6394 88.4179 68.6832 89.3598C69.7269 90.3016 71.0026 90.9481 72.3788 91.2326C73.7782 91.4902 75.223 91.3015 76.5095 90.6933C77.8955 90.0716 79.1545 89.1052 80.6286 88.6919C81.2899 88.4895 81.9991 88.5084 82.6487 88.7457C83.294 88.9836 83.5723 87.9518 82.9323 87.7158Z" fill="#2F2E41" />
		<path d="M213.428 160.054V143.059C213.428 128.224 219.894 113.996 231.433 104.684C240.057 97.7236 252.548 92.5189 270.443 93.682L263.626 66.3887L322.5 106.708L264.865 147.028L270.753 121.285C270.753 121.285 234.808 114.462 213.428 160.054Z" fill="#3F3D56" />
		<path d="M245.43 75.0233C244.67 74.4096 244.109 73.5841 243.818 72.6512C243.527 71.7184 243.519 70.7201 243.794 69.7826C244.07 68.8451 244.618 68.0105 245.367 67.3844C246.117 66.7582 247.035 66.3686 248.006 66.2649L288.901 61.8942C289.511 61.8298 290.121 62.01 290.598 62.3952C291.075 62.7805 291.379 63.3394 291.445 63.9493L291.268 63.9683L291.445 63.9493L292.003 69.1741C292.035 69.4762 292.007 69.7818 291.922 70.0733C291.836 70.3648 291.694 70.6366 291.503 70.873C291.312 71.1095 291.077 71.3061 290.81 71.4515C290.544 71.5969 290.251 71.6884 289.949 71.7206L249.054 76.0913C248.877 76.1103 248.699 76.1198 248.521 76.1198C247.395 76.1205 246.304 75.7333 245.43 75.0233Z" fill="#4f46e5" />
		<path d="M257.476 111.117V105.863C257.477 105.249 257.721 104.661 258.154 104.227C258.588 103.794 259.175 103.55 259.788 103.549H303.54C304.153 103.55 304.741 103.794 305.174 104.227C305.608 104.661 305.852 105.249 305.852 105.863V111.117C305.852 111.731 305.608 112.319 305.174 112.753C304.741 113.186 304.153 113.43 303.54 113.431H259.788C259.175 113.43 258.588 113.186 258.154 112.753C257.721 112.319 257.477 111.731 257.476 111.117Z" fill="#4f46e5" />
		<path d="M236.557 111.373C236.286 111.237 236.044 111.048 235.845 110.818C235.647 110.588 235.496 110.321 235.402 110.032L233.756 105.042C233.564 104.459 233.612 103.824 233.887 103.276C234.163 102.728 234.645 102.312 235.226 102.119L276.773 88.3889C277.355 88.1965 277.99 88.2434 278.537 88.5195C279.085 88.7955 279.5 89.2779 279.693 89.8607L279.524 89.9165L279.693 89.8607L281.339 94.8501C281.53 95.4328 281.483 96.0678 281.207 96.6158C280.931 97.1637 280.45 97.5798 279.868 97.7728L238.322 111.503C238.034 111.599 237.729 111.637 237.426 111.615C237.124 111.592 236.828 111.51 236.557 111.373V111.373Z" fill="#4f46e5" />
		<path d="M291.025 112.915L272.379 96.0869C271.924 95.6756 271.651 95.1005 271.62 94.4878C271.588 93.8751 271.8 93.2749 272.21 92.8188L275.726 88.9164C276.136 88.4607 276.711 88.1869 277.323 88.1552C277.935 88.1235 278.535 88.3365 278.991 88.7474L297.637 105.575C298.091 105.986 298.364 106.562 298.396 107.174C298.428 107.787 298.215 108.387 297.805 108.843L294.29 112.745C294.087 112.972 293.842 113.156 293.568 113.286C293.293 113.417 292.996 113.492 292.693 113.507C292.652 113.509 292.611 113.51 292.57 113.51C291.999 113.511 291.448 113.299 291.025 112.915Z" fill="#4f46e5" />
		<path d="M243.621 52.461C253.639 52.461 261.76 44.3323 261.76 34.3051C261.76 24.2778 253.639 16.1492 243.621 16.1492C233.603 16.1492 225.482 24.2778 225.482 34.3051C225.482 44.3323 233.603 52.461 243.621 52.461Z" fill="#4f46e5" />
		<path d="M222.391 106.36C221.122 104.19 220.453 101.72 220.453 99.2057C220.453 96.6909 221.122 94.2215 222.391 92.0512L241.619 58.7171C241.822 58.3653 242.113 58.0732 242.465 57.8701C242.816 57.667 243.215 57.5601 243.621 57.5601C244.027 57.5601 244.425 57.667 244.777 57.8701C245.128 58.0732 245.42 58.3653 245.623 58.7171L275.229 110.044C275.432 110.395 275.539 110.795 275.539 111.201C275.539 111.607 275.432 112.006 275.229 112.358C275.026 112.709 274.734 113.002 274.383 113.205C274.031 113.408 273.633 113.515 273.227 113.515H234.772C232.259 113.53 229.788 112.875 227.612 111.617C225.436 110.36 223.634 108.545 222.391 106.36Z" fill="#CCCCCC" />
		<path d="M258.572 41.2147C259.748 41.182 261.212 41.1412 262.339 40.3169C262.675 40.0614 262.95 39.7355 263.147 39.3621C263.344 38.9887 263.456 38.5767 263.477 38.1552C263.498 37.8555 263.448 37.5552 263.334 37.2777C263.219 37.0001 263.041 36.753 262.815 36.5554C262.227 36.0572 261.367 35.9406 260.44 36.2132L261.4 29.1909L260.695 29.0942L259.567 37.3498L260.155 37.0795C260.838 36.7663 261.774 36.6071 262.356 37.0992C262.499 37.2279 262.61 37.3878 262.682 37.5666C262.753 37.7454 262.782 37.9382 262.766 38.13C262.749 38.4437 262.664 38.7501 262.518 39.0283C262.372 39.3064 262.168 39.5498 261.919 39.7419C261.042 40.3833 259.876 40.466 258.553 40.503L258.572 41.2147Z" fill="#2F2E41" />
		<path d="M256.624 29.7964H252.793V30.5084H256.624V29.7964Z" fill="#2F2E41" />
		<path d="M232.866 12.8926C232.362 10.832 231.428 8.90137 230.126 7.22769C228.824 5.55401 227.182 4.17515 225.31 3.18172C223.389 2.19376 221.273 1.64639 219.114 1.57935C216.956 1.51232 214.81 1.92732 212.831 2.79419C210.806 3.66277 209.007 4.98594 207.573 6.66144C206.14 8.33695 205.11 10.3199 204.564 12.4571C204.003 14.6071 203.925 16.8552 204.337 19.039C204.843 21.352 205.823 23.5344 207.217 25.4475C208.622 27.4842 210.274 29.3325 211.791 31.2838C213.313 33.2392 214.699 35.2969 215.94 37.4425C219.677 43.9072 222.047 51.0718 222.902 58.4916C223.191 60.7326 223.246 62.9977 223.065 65.25C222.657 69.6239 220.964 73.908 217.078 76.2879C215.013 77.5532 212.629 78.2067 210.27 78.6637C207.623 79.2251 204.914 79.437 202.212 79.294C197.644 78.9691 193.073 77.0611 190.42 73.1755C189.832 72.3102 189.373 71.3649 189.055 70.3685C188.843 69.7128 189.873 69.432 190.084 70.0846C191.489 74.4447 195.753 77.1323 200.069 77.9518C202.756 78.4025 205.5 78.3998 208.187 77.9439C210.628 77.5791 213.143 77.0742 215.38 75.9962C217.412 75.0474 219.098 73.4873 220.203 71.5335C221.201 69.6474 221.805 67.5776 221.979 65.4502C222.454 60.7923 221.68 55.9702 220.521 51.465C219.28 46.6432 217.377 42.017 214.866 37.7187C213.612 35.571 212.208 33.5147 210.664 31.5649C209.136 29.6363 207.505 27.7818 206.127 25.7388C204.766 23.8116 203.807 21.6294 203.308 19.3229C202.883 17.1098 202.923 14.8325 203.424 12.6354C203.907 10.4672 204.853 8.42913 206.197 6.66103C207.541 4.89293 209.251 3.43656 211.21 2.39175C215.054 0.36212 219.737 -0.123832 223.849 1.37172C227.839 2.84549 231.087 5.83591 232.887 9.6931C233.319 10.6287 233.657 11.6055 233.895 12.6087C234.052 13.2772 233.023 13.5624 232.866 12.8926V12.8926Z" fill="#2F2E41" />
		<path d="M229.399 13.7608C228.73 11.8527 227.382 10.2582 225.613 9.28221C223.843 8.3062 221.777 8.01714 219.808 8.47028C219.14 8.62665 218.855 7.59715 219.524 7.44043C221.767 6.88973 224.135 7.2052 226.156 8.32397C228.177 9.44274 229.702 11.2826 230.428 13.4769C230.652 14.1282 229.621 14.408 229.399 13.7608Z" fill="#2F2E41" />
		<path d="M229.236 17.6205C229.032 17.1434 229.025 16.6046 229.217 16.1225C229.41 15.6403 229.785 15.2541 230.261 15.0486L235.163 12.9399C235.639 12.7348 236.178 12.7277 236.66 12.9201C237.142 13.1124 237.528 13.4886 237.732 13.9657C237.937 14.4428 237.944 14.9818 237.752 15.4641C237.56 15.9465 237.184 16.3327 236.708 16.5377L231.806 18.6464C231.329 18.8515 230.791 18.8585 230.309 18.6661C229.827 18.4738 229.441 18.0976 229.236 17.6205Z" fill="#2F2E41" />
		<path d="M241.301 117.684L236.068 117.259C235.457 117.208 234.891 116.917 234.495 116.45C234.098 115.982 233.902 115.376 233.951 114.765L237.279 73.7341C237.332 73.0872 237.511 72.4568 237.806 71.8791C238.102 71.3015 238.508 70.7877 239.002 70.3673C239.496 69.9469 240.068 69.628 240.686 69.4289C241.303 69.2298 241.953 69.1544 242.599 69.2069C243.246 69.2594 243.875 69.4389 244.452 69.7351C245.029 70.0312 245.543 70.4383 245.962 70.933C246.382 71.4277 246.701 72.0003 246.899 72.6182C247.098 73.236 247.173 73.887 247.12 74.5339L243.792 115.564C243.745 116.143 243.482 116.683 243.056 117.077C242.63 117.471 242.072 117.69 241.491 117.691C241.428 117.691 241.364 117.689 241.301 117.684Z" fill="#4f46e5" />
		<path d="M5.11291 35.9878C3.24297 31.6122 5.80621 25.9037 10.3168 24.3983C14.8274 22.893 20.3004 25.9195 21.4282 30.5428C20.699 28.7625 20.3925 26.8371 20.5326 24.9181C20.6727 22.9991 21.2556 21.1388 22.2356 19.4835C23.2156 17.8282 24.5658 16.423 26.1802 15.3784C27.7946 14.3338 29.6291 13.6784 31.5394 13.4635C33.4497 13.2487 35.3838 13.4804 37.1895 14.1403C38.9952 14.8003 40.6234 15.8705 41.9459 17.2669C43.2684 18.6633 44.2493 20.3477 44.8113 22.1878C45.3734 24.0278 45.5013 25.9732 45.1851 27.8711C47.904 23.859 53.7382 22.3437 58.0631 24.5263C62.3881 26.709 64.6401 32.305 63.0341 36.8788L3.50343 36.7724" fill="#F2F2F2" />
		<path d="M125.685 85.8274C123.815 81.4518 126.378 75.7433 130.889 74.2379C135.399 72.7326 140.872 75.7591 142 80.3824C141.271 78.6021 140.964 76.6767 141.104 74.7577C141.244 72.8387 141.827 70.9784 142.807 69.3231C143.787 67.6678 145.138 66.2626 146.752 65.218C148.366 64.1734 150.201 63.518 152.111 63.3031C154.021 63.0883 155.956 63.32 157.761 63.9799C159.567 64.6399 161.195 65.7101 162.518 67.1065C163.84 68.5029 164.821 70.1873 165.383 72.0274C165.945 73.8674 166.073 75.8128 165.757 77.7107C168.476 73.6986 174.31 72.1833 178.635 74.3659C182.96 76.5486 185.212 82.1446 183.606 86.7184L124.075 86.6119" fill="#F2F2F2" />
	</g>
	<defs>
		<clipPath id="clip0_182_465">
			<rect width="322" height="230" fill="white" transform="translate(0.5 0.5)" />
		</clipPath>
	</defs>
</svg>
