<svg viewBox="0 0 345 231" fill="none" xmlns="http://www.w3.org/2000/svg">
	<g clip-path="url(#clip0_182_603)">
		<path d="M281.202 230.084H275.627C274.926 230.084 274.254 229.798 273.758 229.292C273.262 228.785 272.983 228.098 272.983 227.381V179.87C272.983 179.154 273.262 178.466 273.758 177.96C274.254 177.453 274.926 177.168 275.627 177.167H281.202C281.903 177.168 282.575 177.453 283.071 177.96C283.567 178.466 283.845 179.154 283.846 179.87V227.381C283.845 228.098 283.567 228.785 283.071 229.292C282.575 229.798 281.903 230.084 281.202 230.084Z" fill="#4F46E5" />
		<path d="M292.985 230.084H287.409C286.708 230.084 286.036 229.798 285.541 229.292C285.045 228.785 284.766 228.098 284.765 227.381V179.87C284.766 179.154 285.045 178.466 285.541 177.96C286.036 177.453 286.708 177.168 287.409 177.167H292.985C293.686 177.168 294.358 177.453 294.854 177.96C295.349 178.466 295.628 179.154 295.629 179.87V227.381C295.628 228.098 295.349 228.785 294.854 229.292C294.358 229.798 293.686 230.084 292.985 230.084Z" fill="#4F46E5" />
		<path d="M294.875 194.901H273.344C272.492 194.9 271.676 194.554 271.074 193.939C270.472 193.323 270.134 192.489 270.133 191.618V185.439C270.134 184.569 270.472 183.734 271.074 183.119C271.676 182.503 272.492 182.157 273.344 182.156H294.875C295.727 182.157 296.543 182.503 297.145 183.119C297.747 183.734 298.085 184.569 298.086 185.439V191.618C298.085 192.489 297.747 193.323 297.145 193.939C296.543 194.554 295.727 194.9 294.875 194.901Z" fill="#2F2E41" />
		<path d="M286.129 79.7005C286.787 72.9961 291.096 66.5847 297.675 64.8399C300.886 63.9684 304.294 64.2844 307.299 65.7323C310.019 67.1351 312.157 69.4879 313.326 72.3641C314.479 75.2094 314.921 78.3037 314.611 81.3674C314.26 84.7157 313.214 87.9489 311.545 90.8515C309.76 94.0682 307.44 96.9439 305.004 99.6631C302.522 102.434 299.715 104.983 297.626 108.093C295.774 110.852 294.285 114.598 296.11 117.773C296.825 118.937 297.854 119.866 299.072 120.448C300.29 121.03 301.647 121.24 302.979 121.054C303.632 120.952 304.264 120.738 304.847 120.419C305.491 120.068 306.064 121.068 305.419 121.42C302.975 122.754 299.936 122.452 297.627 120.951C294.966 119.222 293.778 116.17 294.277 113.015C294.846 109.418 297.299 106.33 299.654 103.741C302.115 101.036 304.692 98.4538 306.971 95.5806C309.222 92.7425 311.232 89.61 312.436 86.1501C313.448 83.2587 313.786 80.1656 313.422 77.1173C313.063 74.2063 311.956 71.3218 309.97 69.1679C308.872 68.0111 307.557 67.0919 306.105 66.4652C304.652 65.8384 303.091 65.5169 301.514 65.5198C298.242 65.4771 295.069 66.6698 292.603 68.8696C290.171 71.0933 288.456 74.0178 287.682 77.2581C287.484 78.0607 287.344 78.877 287.262 79.7005C287.19 80.4354 286.056 80.443 286.129 79.7005H286.129Z" fill="#2F2E41" />
		<path d="M289.735 79.4345L284.354 77.618C284.095 77.5307 283.855 77.392 283.648 77.2098C283.442 77.0277 283.272 76.8057 283.149 76.5565C283.027 76.3073 282.953 76.0359 282.933 75.7576C282.913 75.4794 282.946 75.1998 283.032 74.9348C283.118 74.6699 283.253 74.4248 283.432 74.2135C283.61 74.0022 283.827 73.8289 284.071 73.7035C284.315 73.5781 284.58 73.503 284.852 73.4825C285.124 73.4621 285.398 73.4966 285.657 73.5842L291.037 75.4007C291.297 75.4878 291.537 75.6264 291.744 75.8085C291.951 75.9906 292.121 76.2127 292.244 76.4619C292.367 76.7112 292.44 76.9828 292.461 77.2612C292.481 77.5396 292.447 77.8194 292.361 78.0845C292.276 78.3496 292.14 78.5948 291.962 78.8062C291.783 79.0176 291.566 79.1909 291.322 79.3163C291.078 79.4417 290.812 79.5166 290.54 79.5369C290.267 79.5572 289.994 79.5224 289.735 79.4345H289.735Z" fill="#2F2E41" />
		<path d="M345 229.635H222.597V230.5H345V229.635Z" fill="#3F3D56" />
		<path d="M183.199 151.143C179.929 151.142 176.67 150.763 173.484 150.013C171.846 149.624 170.231 149.138 168.649 148.555H168.649L168.582 148.532C166.549 147.778 164.575 146.869 162.675 145.812C162.187 145.543 161.694 145.256 161.211 144.958C160.878 144.757 160.55 144.55 160.223 144.34C153.893 140.251 148.716 134.546 145.201 127.788C141.686 121.029 139.955 113.45 140.179 105.799C140.403 98.1478 142.574 90.6884 146.478 84.1566C150.381 77.6249 155.883 72.2465 162.44 68.552C168.997 64.8574 176.383 62.9744 183.868 63.0886C191.354 63.2029 198.682 65.3105 205.128 69.2035C211.574 73.0965 216.916 78.6404 220.628 85.2883C224.339 91.9363 226.291 99.4586 226.291 107.113V107.113C226.271 114.667 224.36 122.09 220.74 128.676C217.12 135.261 211.911 140.789 205.609 144.733C204.87 145.194 204.107 145.636 203.278 146.084C202.151 146.695 200.999 147.25 199.851 147.737L199.638 147.83C199.241 147.998 198.844 148.158 198.443 148.31C198.261 148.383 198.069 148.457 197.877 148.528C193.183 150.26 188.231 151.145 183.241 151.143H183.199ZM168.78 147.784L168.844 147.805C170.417 148.388 172.024 148.874 173.654 149.26C176.785 149.997 179.987 150.37 183.199 150.37C183.213 150.37 183.227 150.371 183.241 150.37C188.143 150.373 193.009 149.503 197.621 147.802C197.806 147.733 197.992 147.661 198.175 147.588C198.493 147.467 198.805 147.343 199.116 147.214V147.214L199.351 147.112C200.547 146.613 201.749 146.038 202.925 145.402C203.74 144.961 204.49 144.526 205.217 144.073C211.407 140.198 216.525 134.767 220.082 128.298C223.639 121.828 225.516 114.535 225.536 107.114V107.113C225.535 99.5929 223.618 92.2026 219.972 85.6713C216.325 79.14 211.077 73.6934 204.744 69.8687C198.411 66.044 191.212 63.9733 183.858 63.861C176.503 63.7487 169.247 65.5986 162.805 69.2282C156.363 72.8578 150.958 78.1418 147.123 84.5588C143.287 90.9758 141.154 98.3043 140.934 105.821C140.714 113.338 142.415 120.784 145.868 127.424C149.321 134.064 154.407 139.669 160.625 143.686C160.946 143.893 161.268 144.095 161.598 144.295C162.073 144.588 162.556 144.869 163.035 145.132C164.883 146.161 166.803 147.047 168.781 147.783L168.78 147.784Z" fill="#E6E6E6" />
		<path d="M105.383 88.5745C102.113 88.574 98.8542 88.1949 95.6682 87.4445C94.0297 87.0562 92.4151 86.5695 90.8327 85.9867H90.8325L90.7663 85.9637C88.7332 85.2101 86.7585 84.3008 84.8592 83.2435C84.3712 82.9754 83.8777 82.6876 83.3945 82.3896C83.0619 82.1886 82.7342 81.9823 82.4064 81.7718C76.0772 77.6832 70.8997 71.9781 67.3849 65.2195C63.87 58.4609 62.1392 50.8821 62.363 43.2309C62.5869 35.5797 64.7577 28.1203 68.6614 21.5885C72.5651 15.0568 78.0668 9.67836 84.6237 5.98383C91.1807 2.28929 98.5664 0.40628 106.052 0.520531C113.538 0.634782 120.866 2.74236 127.312 6.63535C133.758 10.5283 139.1 16.0723 142.811 22.7202C146.523 29.3682 148.475 36.8905 148.475 44.5452V44.5448C148.455 52.099 146.544 59.5222 142.924 66.1074C139.304 72.6926 134.095 78.2206 127.793 82.1648C127.054 82.6261 126.291 83.0681 125.462 83.5162C124.335 84.1265 123.183 84.6817 122.035 85.169L121.822 85.2621C121.425 85.43 121.028 85.5903 120.627 85.7423C120.444 85.8147 120.253 85.889 120.061 85.9599C115.367 87.6922 110.415 88.5769 105.425 88.5744C105.411 88.5741 105.397 88.5745 105.383 88.5745ZM90.9644 85.2154L91.0275 85.2373C92.6012 85.8198 94.2077 86.3055 95.8382 86.6916C98.9686 87.4292 102.171 87.8017 105.383 87.802C105.397 87.802 105.41 87.8024 105.425 87.802C110.327 87.8045 115.193 86.9354 119.805 85.2335C119.99 85.1648 120.176 85.0928 120.359 85.02C120.677 84.8993 120.989 84.7752 121.3 84.6462V84.6458L121.535 84.544C122.731 84.045 123.933 83.4698 125.109 82.8335C125.924 82.3926 126.674 81.9581 127.4 81.5051C133.591 77.6302 138.709 72.1992 142.266 65.7296C145.822 59.26 147.7 51.9671 147.72 44.5455V44.5452C147.719 37.0248 145.802 29.6345 142.155 23.1032C138.509 16.5719 133.261 11.1253 126.928 7.30055C120.595 3.47584 113.396 1.4052 106.041 1.29289C98.6869 1.18057 91.4308 3.03046 84.9889 6.66008C78.5469 10.2897 73.1417 15.5736 69.3064 21.9907C65.4712 28.4077 63.3383 35.7362 63.1182 43.2532C62.8982 50.7701 64.5985 58.2159 68.0515 64.856C71.5046 71.4961 76.591 77.1011 82.8091 81.1182C83.1304 81.3245 83.4522 81.527 83.7818 81.7265C84.2573 82.0196 84.7399 82.301 85.2189 82.5642C87.0668 83.593 88.9873 84.4792 90.9644 85.2154V85.2154Z" fill="#E6E6E6" />
		<path d="M43.0542 177.406C39.7847 177.405 36.5258 177.026 33.3397 176.275C31.7013 175.887 30.0866 175.401 28.5043 174.818H28.5041L28.4379 174.795C26.4047 174.041 24.4301 173.132 22.5308 172.075C22.0427 171.806 21.5493 171.519 21.0661 171.221C20.7335 171.02 20.4058 170.813 20.078 170.603C13.7487 166.514 8.57133 160.809 5.05647 154.051C1.5416 147.292 -0.189274 139.713 0.0345784 132.062C0.258431 124.411 2.42928 116.951 6.33297 110.42C10.2367 103.888 15.7384 98.5094 22.2953 94.8149C28.8523 91.1204 36.238 89.2373 43.7239 89.3516C51.2097 89.4658 58.5372 91.5734 64.9834 95.4664C71.4295 99.3594 76.7718 104.903 80.483 111.551C84.1943 118.199 86.1464 125.722 86.1468 133.376V133.376C86.1269 140.93 84.2158 148.353 80.5955 154.938C76.9752 161.524 71.7663 167.052 65.4649 170.996C64.7251 171.457 63.9624 171.899 63.1333 172.347C62.0062 172.958 60.8543 173.513 59.7065 174L59.4936 174.093C59.0965 174.261 58.6994 174.421 58.2986 174.573C58.116 174.646 57.9242 174.72 57.7325 174.791C53.0389 176.523 48.0865 177.408 43.0965 177.406C43.0824 177.406 43.0684 177.406 43.0542 177.406ZM28.636 174.046L28.6991 174.068C30.2728 174.651 31.8793 175.137 33.5098 175.523C36.6402 176.26 39.8422 176.633 43.0546 176.633C43.0682 176.634 43.0815 176.633 43.0961 176.633C47.9988 176.636 52.8646 175.766 57.4761 174.065C57.6619 173.996 57.8478 173.924 58.0302 173.851C58.3482 173.73 58.6605 173.606 58.9717 173.477V173.477L59.2066 173.375C60.4022 172.876 61.6045 172.301 62.7801 171.665C63.5956 171.224 64.3452 170.789 65.0721 170.336C71.2629 166.461 76.3804 161.03 79.9372 154.561C83.494 148.091 85.3716 140.798 85.3913 133.377V133.376C85.391 125.856 83.4731 118.466 79.827 111.934C76.1808 105.403 70.9324 99.9563 64.5994 96.1316C58.2663 92.3069 51.0675 90.2362 43.713 90.1239C36.3585 90.0116 29.1024 91.8615 22.6604 95.4911C16.2185 99.1207 10.8133 104.405 6.97802 110.822C3.14273 117.239 1.00986 124.567 0.789792 132.084C0.569728 139.601 2.27008 147.047 5.72311 153.687C9.17614 160.327 14.2626 165.932 20.4806 169.949C20.8019 170.156 21.1238 170.358 21.4534 170.558C21.9289 170.851 22.4114 171.132 22.8904 171.395C24.7384 172.424 26.6589 173.31 28.636 174.046V174.046Z" fill="#E6E6E6" />
		<path d="M66.5876 102.415C69.8919 102.415 72.5706 99.676 72.5706 96.2976C72.5706 92.9192 69.8919 90.1804 66.5876 90.1804C63.2833 90.1804 60.6046 92.9192 60.6046 96.2976C60.6046 99.676 63.2833 102.415 66.5876 102.415Z" fill="#CCCCCC" />
		<path d="M131.56 17.0598C134.865 17.0598 137.543 14.3211 137.543 10.9426C137.543 7.5642 134.865 4.82544 131.56 4.82544C128.256 4.82544 125.577 7.5642 125.577 10.9426C125.577 14.3211 128.256 17.0598 131.56 17.0598Z" fill="#CCCCCC" />
		<path d="M216.176 87.7385C219.48 87.7385 222.159 84.9998 222.159 81.6213C222.159 78.2429 219.48 75.5042 216.176 75.5042C212.872 75.5042 210.193 78.2429 210.193 81.6213C210.193 84.9998 212.872 87.7385 216.176 87.7385Z" fill="#CCCCCC" />
		<path d="M284.388 121.044C295.553 121.044 304.604 111.789 304.604 100.373C304.604 88.9575 295.553 79.7031 284.388 79.7031C273.222 79.7031 264.171 88.9575 264.171 100.373C264.171 111.789 273.222 121.044 284.388 121.044Z" fill="#4F46E5" />
		<path d="M231.723 165.364C231.446 165.363 231.172 165.319 230.908 165.232C230.577 165.123 230.271 164.949 230.006 164.719C229.741 164.489 229.524 164.207 229.367 163.89L226.826 158.816C226.668 158.5 226.573 158.155 226.545 157.801C226.517 157.447 226.557 157.091 226.664 156.753C226.771 156.416 226.942 156.103 227.167 155.832C227.392 155.562 227.667 155.34 227.976 155.178L269.34 133.531C269.965 133.204 270.691 133.145 271.358 133.365C272.025 133.585 272.58 134.068 272.899 134.706L275.44 139.781C275.759 140.419 275.817 141.161 275.602 141.843C275.387 142.525 274.915 143.092 274.291 143.419L232.926 165.066C232.554 165.262 232.141 165.364 231.723 165.364Z" fill="#4F46E5" />
		<path d="M301.675 186.018H267.3C266.448 186.017 265.632 185.671 265.03 185.056C264.428 184.44 264.09 183.606 264.089 182.735V145.851C264.089 140.32 266.238 135.015 270.063 131.104C273.889 127.192 279.077 124.995 284.487 124.995C289.897 124.995 295.086 127.192 298.911 131.104C302.737 135.015 304.886 140.32 304.886 145.851V182.735C304.885 183.606 304.546 184.44 303.944 185.056C303.342 185.671 302.526 186.017 301.675 186.018Z" fill="#CCCCCC" />
		<path d="M288.515 182.01C288.489 182.01 288.463 182.009 288.436 182.009L282.863 181.844C282.162 181.823 281.498 181.518 281.017 180.997C280.536 180.475 280.277 179.78 280.297 179.063L281.642 131.572C281.651 131.217 281.729 130.867 281.871 130.543C282.014 130.219 282.217 129.927 282.47 129.684C282.522 129.634 282.575 129.587 282.629 129.543C283.119 129.14 283.734 128.929 284.362 128.948L289.935 129.113C290.636 129.135 291.299 129.44 291.78 129.961C292.262 130.482 292.521 131.178 292.502 131.894L291.156 179.385C291.135 180.087 290.848 180.754 290.355 181.244C289.862 181.734 289.203 182.008 288.515 182.01Z" fill="#4F46E5" />
		<path d="M283.125 127.91C283.579 127.534 284.15 127.338 284.734 127.357L290.307 127.522C290.958 127.542 291.574 127.825 292.021 128.31C292.468 128.794 292.709 129.439 292.691 130.104L293.989 152.105C293.97 152.77 293.693 153.4 293.219 153.857C292.746 154.314 292.115 154.56 291.464 154.541L291.464 154.541L280.98 154.376C280.658 154.367 280.34 154.292 280.046 154.157C279.752 154.022 279.487 153.83 279.265 153.59C279.044 153.35 278.871 153.068 278.756 152.76C278.642 152.452 278.588 152.124 278.597 151.794L280.899 130.209C280.918 129.539 282.501 128.501 282.978 128.041C283.025 127.995 283.075 127.951 283.125 127.91Z" fill="#CCCCCC" />
		<path d="M275.287 131.836C275.827 132.064 276.268 132.483 276.531 133.017L279.055 138.099C279.349 138.693 279.401 139.382 279.199 140.015C278.997 140.647 278.558 141.172 277.978 141.474L259.703 153.165C259.122 153.466 258.448 153.518 257.83 153.312C257.211 153.105 256.697 152.656 256.402 152.063L256.402 152.063L251.529 142.571C251.383 142.277 251.295 141.956 251.27 141.628C251.245 141.299 251.284 140.968 251.384 140.655C251.484 140.342 251.643 140.052 251.853 139.801C252.063 139.551 252.319 139.345 252.607 139.196L273.23 131.915C273.517 131.765 273.831 131.674 274.152 131.649C274.474 131.623 274.797 131.663 275.104 131.767C275.166 131.787 275.227 131.811 275.287 131.836Z" fill="#CCCCCC" />
		<path d="M277.633 105.424C276.385 105.388 274.83 105.344 273.633 104.45C273.277 104.172 272.984 103.819 272.775 103.414C272.566 103.009 272.446 102.562 272.424 102.105C272.402 101.78 272.455 101.454 272.577 101.153C272.698 100.851 272.887 100.583 273.127 100.369C273.753 99.8285 274.665 99.7022 275.65 99.9979L274.63 92.379L275.379 92.2742L276.577 101.231L275.952 100.938C275.228 100.598 274.233 100.425 273.615 100.959C273.463 101.099 273.345 101.272 273.269 101.466C273.194 101.66 273.163 101.869 273.179 102.077C273.198 102.418 273.287 102.75 273.443 103.052C273.598 103.353 273.815 103.617 274.079 103.826C275.01 104.522 276.249 104.612 277.654 104.652L277.633 105.424Z" fill="#2F2E41" />
		<path d="M270.929 93.0364H266.859V93.8088H270.929V93.0364Z" fill="#2F2E41" />
		<path d="M283.772 93.0364H279.703V93.8088H283.772V93.0364Z" fill="#2F2E41" />
		<path d="M181.797 131.013C192.963 131.013 202.014 121.759 202.014 110.343C202.014 98.9272 192.963 89.6729 181.797 89.6729C170.632 89.6729 161.58 98.9272 161.58 110.343C161.58 121.759 170.632 131.013 181.797 131.013Z" fill="#4F46E5" />
		<path d="M172.625 99.2136C170.266 98.6446 167.718 97.879 166.035 95.9795C164.602 94.3625 163.93 91.8669 165.2 89.9499C166.359 88.1994 168.646 87.5571 170.571 87.2289C172.808 86.8473 175.107 86.7916 177.206 85.8181C178.237 85.3415 179.136 84.6118 179.825 83.6941C180.464 82.7766 181.018 81.8007 181.481 80.7788C181.92 79.7828 182.507 78.862 183.22 78.0486C184.031 77.2366 185.077 76.7144 186.202 76.56C188.735 76.1664 191.139 77.3631 193.132 78.8492C195.062 80.3166 196.812 82.0152 198.347 83.9087C201.831 88.1537 204.229 93.217 205.326 98.6438C205.473 99.3736 206.566 99.0647 206.419 98.3358C205.37 93.2001 203.19 88.3761 200.046 84.2296C198.489 82.1621 196.701 80.2882 194.718 78.6461C192.664 76.9548 190.293 75.4808 187.592 75.3411C186.343 75.2667 185.096 75.5198 183.97 76.0765C182.935 76.6343 182.064 77.4638 181.446 78.4798C180.174 80.4532 179.56 83.0031 177.507 84.338C175.427 85.69 172.823 85.7034 170.464 86.0796C168.366 86.4142 166.03 87.1209 164.609 88.8438C163.038 90.7495 163.097 93.3465 164.271 95.4482C165.575 97.7836 167.997 99.058 170.43 99.8178C171.055 100.013 171.688 100.178 172.324 100.331C173.033 100.502 173.336 99.385 172.625 99.2136V99.2136Z" fill="#2F2E41" />
		<path d="M180.934 117.245L180.913 116.472C182.319 116.432 183.558 116.342 184.489 115.647C184.753 115.438 184.97 115.174 185.125 114.872C185.28 114.57 185.37 114.238 185.388 113.898C185.405 113.69 185.374 113.48 185.298 113.287C185.223 113.093 185.105 112.919 184.953 112.78C184.335 112.246 183.34 112.419 182.615 112.759L181.99 113.052L183.189 104.095L183.937 104.2L182.918 111.819C183.903 111.523 184.815 111.65 185.441 112.19C185.681 112.404 185.869 112.672 185.991 112.973C186.113 113.274 186.165 113.6 186.143 113.925C186.121 114.382 186.002 114.829 185.793 115.234C185.584 115.64 185.291 115.993 184.934 116.27C183.738 117.164 182.183 117.209 180.934 117.245Z" fill="#2F2E41" />
		<path d="M191.708 104.857H187.639V105.629H191.708V104.857Z" fill="#2F2E41" />
		<path d="M178.865 104.857H174.796V105.629H178.865V104.857Z" fill="#2F2E41" />
		<path d="M42.4081 157.277C53.5735 157.277 62.6249 148.022 62.6249 136.606C62.6249 125.19 53.5735 115.936 42.4081 115.936C31.2427 115.936 22.1914 125.19 22.1914 136.606C22.1914 148.022 31.2427 157.277 42.4081 157.277Z" fill="#4F46E5" />
		<path d="M41.5451 143.508L41.524 142.735C42.9295 142.695 44.1687 142.605 45.0997 141.91C45.3637 141.701 45.5807 141.437 45.7359 141.135C45.8911 140.834 45.981 140.501 45.9993 140.161C46.0156 139.953 45.9849 139.744 45.9093 139.55C45.8338 139.356 45.7156 139.182 45.5638 139.043C44.9457 138.509 43.9512 138.682 43.2263 139.022L42.6012 139.315L43.7999 130.358L44.5484 130.463L43.5288 138.082C44.5137 137.786 45.4264 137.913 46.0515 138.453C46.2915 138.667 46.4798 138.935 46.6017 139.236C46.7236 139.537 46.7758 139.863 46.7542 140.188C46.7322 140.645 46.6125 141.092 46.4037 141.498C46.1949 141.903 45.9019 142.256 45.5454 142.534C44.349 143.427 42.7943 143.472 41.5451 143.508Z" fill="#2F2E41" />
		<path d="M52.319 131.12H48.2501V131.893H52.319V131.12Z" fill="#2F2E41" />
		<path d="M39.4756 131.12H35.4067V131.893H39.4756V131.12Z" fill="#2F2E41" />
		<path d="M105.869 67.8476C117.035 67.8476 126.086 58.5932 126.086 47.1773C126.086 35.7615 117.035 26.5071 105.869 26.5071C94.7041 26.5071 85.6527 35.7615 85.6527 47.1773C85.6527 58.5932 94.7041 67.8476 105.869 67.8476Z" fill="#CCCCCC" />
		<path d="M120.158 54.8215L120.137 54.0491C121.543 54.0091 122.782 53.919 123.713 53.2235C123.977 53.0151 124.194 52.751 124.349 52.4492C124.504 52.1474 124.594 51.815 124.612 51.4745C124.629 51.2665 124.598 51.0574 124.522 50.8635C124.447 50.6696 124.329 50.4962 124.177 50.3566C123.559 49.8225 122.564 49.9953 121.839 50.3355L121.214 50.6285L122.413 41.6719L123.161 41.7767L122.142 49.3956C123.127 49.0995 124.039 49.2266 124.665 49.7667C124.905 49.9809 125.093 50.249 125.215 50.55C125.337 50.8509 125.389 51.1767 125.367 51.5017C125.345 51.9591 125.226 52.4061 125.017 52.8113C124.808 53.2165 124.515 53.5701 124.158 53.8473C122.962 54.7412 121.407 54.7857 120.158 54.8215Z" fill="#2F2E41" />
		<path d="M118.089 42.4338H114.02V43.2063H118.089V42.4338Z" fill="#2F2E41" />
		<path d="M117.82 25.289C117.065 20.6869 114.213 16.7306 110.545 14.0599C106.948 11.488 102.649 10.1441 98.2607 10.2201C89.7639 10.3157 81.4559 15.1814 76.9005 22.4826C71.8537 30.5714 71.7541 41.1343 75.1659 49.8799C76.0381 52.1328 77.1439 54.2836 78.4643 56.2956C79.9289 58.5143 81.7031 60.4717 83.4287 62.4755C86.6446 66.2101 90.3315 71.4038 88.1766 76.6146C87.3806 78.5393 85.7015 80.2892 83.5646 80.427C81.7607 80.5434 79.7607 79.6613 78.9609 77.9276C78.0648 75.9854 79.3054 73.6867 81.1383 72.8918C83.0608 72.058 85.0588 73.288 85.7689 75.1798C86.1218 76.0508 86.1338 77.0271 85.8025 77.9069C85.7317 78.0408 85.7134 78.1971 85.7511 78.3442C85.7889 78.4914 85.8799 78.6184 86.0057 78.6996C86.1357 78.7762 86.29 78.7973 86.4351 78.7584C86.5802 78.7195 86.7045 78.6237 86.781 78.4917C87.1624 77.5168 87.2452 76.4464 87.0184 75.4224C86.7916 74.3983 86.2659 73.4688 85.5109 72.757C84.7447 72.0065 83.7431 71.558 82.6841 71.4911C81.6251 71.4241 80.5771 71.7431 79.7263 72.3914C77.9298 73.733 76.9798 76.1345 77.8903 78.3016C78.6786 80.1778 80.5859 81.311 82.512 81.5502C83.5745 81.6573 84.646 81.4812 85.6223 81.0393C86.5985 80.5973 87.4462 79.9045 88.0829 79.0282C89.5035 77.1264 90.1472 74.7352 89.8786 72.358C89.248 66.428 84.6143 62.3737 81.1358 58.034C78.0426 54.1454 75.8627 49.5833 74.7637 44.6985C73.6391 39.8972 73.681 34.8875 74.8858 30.1066C76.0543 25.5736 78.456 21.4722 81.8122 18.2783C85.0335 15.2261 88.9675 13.0709 93.2371 12.0193C97.4585 10.9449 101.901 11.2213 105.963 12.8112C110.222 14.5384 114.001 17.956 115.802 22.3078C116.235 23.3636 116.545 24.4675 116.727 25.597C116.847 26.3308 117.94 26.0196 117.82 25.289H117.82Z" fill="#2F2E41" />
		<path d="M117.795 25.4637C119.687 23.5999 122.771 23.3312 125.051 24.5936C127.409 25.8994 128.355 28.7118 127.75 31.3142C127.44 32.7679 126.619 34.0545 125.442 34.93C124.848 35.353 125.413 36.3579 126.014 35.9305C128.565 34.115 129.639 30.6163 128.768 27.5897C127.859 24.4297 124.84 22.5431 121.688 22.669C119.939 22.7164 118.268 23.4195 116.994 24.6444C116.467 25.1627 117.269 25.9814 117.795 25.4637Z" fill="#2F2E41" />
		<path d="M47.5565 123.547C49.9949 123.315 52.0364 121.664 53.1191 119.455C53.6718 118.312 53.9619 117.054 53.9671 115.778C53.9724 114.503 53.6926 113.243 53.1492 112.095C52.0002 109.687 50.0829 107.752 47.7137 106.607C44.958 105.243 41.8459 104.865 38.8146 104.99C33.1025 105.226 26.8093 106.865 23.2979 111.845C21.6461 114.104 20.9283 116.935 21.2992 119.73C21.7435 122.662 23.4892 125.202 25.3531 127.391C27.3066 129.685 29.5609 131.752 31.1048 134.38C32.4407 136.655 33.1594 139.518 32.2657 142.099C32.0527 142.711 31.7363 143.28 31.3311 143.78C30.8691 144.35 31.6665 145.174 32.1325 144.599C33.7401 142.616 34.0651 139.997 33.5589 137.529C33.0015 134.812 31.3938 132.515 29.6357 130.463C26.2148 126.47 21.1201 122.11 22.5579 116.144C23.233 113.559 24.7693 111.295 26.9019 109.743C29.1885 108.048 31.9034 107.116 34.6622 106.609C39.9413 105.64 46.3342 105.742 50.3228 109.947C51.9805 111.695 53.1206 114.137 52.8153 116.616C52.5399 118.851 51.1441 121.043 49.1034 121.975C48.6131 122.198 48.0907 122.338 47.5565 122.388C46.8365 122.457 46.8295 123.616 47.5565 123.547H47.5565Z" fill="#2F2E41" />
	</g>
	<defs>
		<clipPath id="clip0_182_603">
			<rect width="345" height="230" fill="white" transform="translate(0 0.5)" />
		</clipPath>
	</defs>
</svg>
