<svg viewBox="0 0 215 204" fill="none" xmlns="http://www.w3.org/2000/svg">
	<path d="M89.0524 126.644C98.7895 111.429 117.363 99.7469 137.025 100.872C122.522 114.881 114.065 132.996 113.15 152.01C112.827 159.345 113.328 167.532 107.845 173.024C104.434 176.441 99.2202 178.096 94.0937 178.443C88.9669 178.79 83.8413 177.968 78.7831 177.148L77.556 177.483C77.0889 159.987 79.3154 141.858 89.0524 126.644Z" fill="#F0F0F0" />
	<path d="M137.054 101.239C122.514 107.456 110.117 117.839 102.506 130.503C100.861 133.241 99.4599 136.145 98.8488 139.216C98.2374 142.289 98.6645 145.213 99.8458 148.131C100.926 150.799 102.378 153.417 102.71 156.271C103.059 159.28 101.812 162.093 99.569 164.326C96.8241 167.058 93.1379 168.751 89.4682 170.295C85.3939 172.009 81.1313 173.733 78.2454 176.933C77.8958 177.32 77.239 176.816 77.5881 176.429C82.6089 170.861 91.2033 169.815 97.1631 165.33C99.944 163.237 102.032 160.388 101.9 157.049C101.785 154.129 100.29 151.428 99.1698 148.736C97.9939 145.908 97.4075 143.065 97.8292 140.051C98.2606 136.967 99.5365 134.008 101.096 131.245C104.613 125.013 109.425 119.292 114.939 114.346C121.275 108.662 128.66 103.982 136.773 100.509C137.275 100.294 137.553 101.025 137.054 101.239Z" fill="white" />
	<path d="M104.735 126.271C102.506 124.823 100.929 122.719 100.286 120.334C99.6424 117.948 99.9744 115.438 101.223 113.25C101.477 112.808 102.262 113.138 102.007 113.581C100.841 115.616 100.532 117.955 101.136 120.175C101.74 122.395 103.218 124.35 105.303 125.687C105.755 125.978 105.185 126.56 104.735 126.271Z" fill="white" />
	<path d="M99.0977 146.843C104.683 146.118 109.755 143.55 113.304 139.65C113.655 139.264 114.312 139.768 113.961 140.154C110.26 144.206 104.975 146.869 99.1613 147.612C98.6071 147.682 98.5465 146.913 99.0977 146.843V146.843Z" fill="white" />
	<path d="M121.704 109.611C122.435 110.331 123.356 110.878 124.384 111.203C125.412 111.529 126.515 111.622 127.594 111.476C128.147 111.399 128.207 112.169 127.657 112.245C126.465 112.402 125.247 112.297 124.11 111.94C122.973 111.583 121.953 110.983 121.137 110.195C121.053 110.126 121.002 110.032 120.993 109.931C120.985 109.83 121.02 109.729 121.092 109.651C121.167 109.574 121.274 109.526 121.389 109.519C121.503 109.511 121.617 109.544 121.704 109.611Z" fill="white" />
	<path d="M176.145 148.869C175.801 148.925 175.458 148.982 175.111 149.045C170.494 149.827 165.956 150.941 161.543 152.376C161.2 152.482 160.854 152.594 160.515 152.709C149.923 156.267 140.166 161.541 131.742 168.262C128.392 170.94 125.277 173.84 122.423 176.937C118.481 181.214 114.591 186.131 109.44 188.92C108.906 189.216 108.353 189.483 107.782 189.719L78.1106 178.787C78.0572 178.732 78.0007 178.683 77.947 178.628L76.7398 178.239C76.8745 178.07 77.0182 177.898 77.1528 177.729C77.2305 177.631 77.3147 177.535 77.3924 177.437C77.4462 177.372 77.5005 177.307 77.5449 177.246C77.5627 177.225 77.5809 177.203 77.5959 177.187C77.6404 177.126 77.689 177.074 77.7306 177.019C78.531 176.052 79.3405 175.089 80.159 174.129C80.1618 174.123 80.1618 174.123 80.1713 174.119C86.429 166.819 93.4279 159.918 101.383 154.18C101.623 154.008 101.865 153.829 102.118 153.661C105.72 151.093 109.552 148.79 113.577 146.776C115.784 145.68 118.053 144.683 120.374 143.79C126.377 141.494 132.748 140.051 139.256 139.513C152.228 138.443 165.442 141.07 175.391 148.309C175.645 148.494 175.894 148.677 176.145 148.869Z" fill="#F0F0F0" />
	<path d="M175.922 149.179C160.099 146.367 143.162 148.028 128.502 154.069C125.333 155.375 122.246 156.945 119.676 159.07C117.106 161.196 115.464 163.76 114.43 166.721C113.484 169.429 112.869 172.296 111.199 174.752C109.439 177.341 106.537 178.921 103.232 179.504C99.1887 180.217 95.0981 179.597 91.1215 178.868C86.7062 178.058 82.1346 177.154 77.6616 178.166C77.1196 178.288 76.9372 177.534 77.4783 177.412C85.2606 175.652 92.8321 179.412 100.63 179.019C104.269 178.835 107.868 177.676 110.026 174.94C111.913 172.547 112.549 169.591 113.48 166.842C114.458 163.956 115.917 161.372 118.297 159.191C120.731 156.96 123.756 155.279 126.874 153.907C133.905 150.812 141.626 148.818 149.38 147.818C158.292 146.667 167.361 146.88 176.192 148.446C176.739 148.543 176.465 149.275 175.922 149.179V149.179Z" fill="white" />
	<path d="M133.151 151.882C132.353 149.534 132.52 147.01 133.623 144.762C134.726 142.513 136.692 140.686 139.172 139.607C139.674 139.39 140.077 140.073 139.574 140.29C137.263 141.292 135.431 142.994 134.409 145.09C133.387 147.185 133.242 149.537 134 151.719C134.164 152.194 133.314 152.354 133.151 151.882Z" fill="white" />
	<path d="M114.706 165.292C119.657 167.7 125.448 168.363 130.924 167.147C131.466 167.026 131.649 167.78 131.107 167.901C125.406 169.157 119.381 168.457 114.235 165.941C113.745 165.7 114.218 165.053 114.706 165.292Z" fill="white" />
	<path d="M157.992 147.654C158.088 148.62 158.452 149.55 159.052 150.359C159.652 151.169 160.469 151.833 161.43 152.293C161.924 152.528 161.45 153.175 160.959 152.942C159.901 152.429 158.999 151.694 158.334 150.801C157.669 149.908 157.26 148.883 157.143 147.817C157.123 147.718 157.146 147.615 157.207 147.53C157.269 147.444 157.365 147.383 157.476 147.359C157.588 147.338 157.706 147.357 157.802 147.412C157.899 147.468 157.967 147.555 157.992 147.654Z" fill="white" />
	<path d="M92.2336 19.4696C88.3896 19.4696 84.7031 20.9973 81.985 23.7166C79.2669 26.4359 77.7399 30.124 77.7399 33.9696C77.7399 37.8153 79.2669 41.5034 81.985 44.2227C84.7031 46.942 88.3896 48.4696 92.2336 48.4696H200.246C204.09 48.4696 207.777 46.942 210.495 44.2227C213.213 41.5034 214.74 37.8153 214.74 33.9696C214.74 30.124 213.213 26.4359 210.495 23.7166C207.777 20.9973 204.09 19.4696 200.246 19.4696H92.2336Z" fill="#E5E5E5" />
	<path d="M92.2885 22.4696C89.2256 22.4696 86.2882 23.6812 84.1224 25.8379C81.9566 27.9946 80.7399 30.9196 80.7399 33.9696C80.7399 37.0196 81.9566 39.9447 84.1224 42.1014C86.2882 44.258 89.2256 45.4696 92.2885 45.4696H200.191C203.254 45.4696 206.192 44.258 208.357 42.1014C210.523 39.9447 211.74 37.0196 211.74 33.9696C211.74 30.9196 210.523 27.9946 208.357 25.8379C206.192 23.6812 203.254 22.4696 200.191 22.4696H92.2885Z" fill="white" />
	<path d="M27.0099 92.157C26.8965 91.9353 26.7834 91.7127 26.6707 91.4894C26.7141 91.4907 26.7571 91.4962 26.8006 91.4972L27.0099 92.157Z" fill="#2F2E41" />
	<path opacity="0.2" d="M11.7399 165.47L19.1844 201.448L23.6513 201.794L11.7399 165.47Z" fill="black" />
	<path opacity="0.2" d="M95.2647 158.803L87.8201 197.469L83.3532 197.841L95.2647 158.803Z" fill="black" />
	<path d="M39.4096 29.18C37.8668 29.177 36.7115 28.1268 36.6627 26.683C36.6131 25.2172 37.7148 24.1556 39.2823 24.1587C40.85 24.1618 41.98 25.2041 42.0304 26.6936C42.08 28.1608 41.0023 29.1832 39.4096 29.18ZM39.7878 21.4966L38.5611 21.4942C38.2551 21.4925 37.9573 21.3882 37.7266 21.2022C37.4959 21.0161 37.349 20.7618 37.3151 20.4894L37.302 20.3799C36.949 18.1503 37.7729 15.9042 39.7515 13.7084C41.5523 11.7482 42.5831 10.2824 42.5258 8.58752C42.4595 6.62794 40.999 5.48117 38.5189 5.44122C37.5511 5.43931 37.2877 5.33612 36.3818 5.66698C36.1841 5.74047 35.9705 5.77717 35.7538 5.77489C35.5371 5.77261 35.3217 5.7314 35.1205 5.65372C34.9257 5.57926 34.7484 5.47102 34.5993 5.33545C34.4501 5.19988 34.3321 5.03976 34.2523 4.86464C34.0986 4.52718 34.0923 4.15436 34.2346 3.82147C34.377 3.48857 34.6573 3.22041 35.0192 3.07113C36.565 2.46173 38.246 2.14918 39.9562 2.15321C45.3175 2.16377 46.5546 5.53601 46.6439 8.17714C46.7313 10.7605 45.26 12.5827 43.1718 14.8751C41.4301 16.7775 40.77 18.4205 40.9642 20.3691C40.9759 20.5153 40.9543 20.6611 40.9009 20.7978C40.8475 20.9345 40.7634 21.0592 40.6535 21.1645C40.5436 21.2698 40.4103 21.3535 40.2615 21.4106C40.1128 21.4677 39.9516 21.4969 39.7878 21.4966L39.7878 21.4966Z" fill="#6C63FF" />
	<path d="M116.215 41.4696H94.272C94.2023 41.4701 94.1332 41.4575 94.0686 41.4325C94.0041 41.4076 93.9454 41.3709 93.8959 41.3244C93.8465 41.2779 93.8072 41.2226 93.7804 41.1618C93.7537 41.1009 93.7399 41.0356 93.7399 40.9696C93.7399 40.9037 93.7537 40.8384 93.7804 40.7775C93.8072 40.7166 93.8465 40.6614 93.8959 40.6149C93.9454 40.5684 94.0041 40.5317 94.0686 40.5067C94.1332 40.4818 94.2023 40.4692 94.272 40.4696H116.215C116.354 40.4705 116.488 40.5236 116.586 40.6173C116.685 40.711 116.74 40.8376 116.74 40.9696C116.74 41.1017 116.685 41.2283 116.586 41.322C116.488 41.4156 116.354 41.4687 116.215 41.4696Z" fill="#6C63FF" />
	<path d="M143.231 41.4696H122.249C122.182 41.4701 122.116 41.4575 122.054 41.4326C121.993 41.4076 121.936 41.3709 121.889 41.3244C121.842 41.2779 121.804 41.2226 121.779 41.1618C121.753 41.1009 121.74 41.0356 121.74 40.9696C121.74 40.9037 121.753 40.8384 121.779 40.7775C121.804 40.7166 121.842 40.6614 121.889 40.6149C121.936 40.5684 121.993 40.5317 122.054 40.5067C122.116 40.4818 122.182 40.4692 122.249 40.4696H143.231C143.298 40.4692 143.364 40.4818 143.425 40.5067C143.487 40.5317 143.543 40.5684 143.591 40.6149C143.638 40.6614 143.675 40.7166 143.701 40.7775C143.727 40.8384 143.74 40.9037 143.74 40.9696C143.74 41.0356 143.727 41.1009 143.701 41.1618C143.675 41.2226 143.638 41.2779 143.591 41.3244C143.543 41.3709 143.487 41.4076 143.425 41.4326C143.364 41.4575 143.298 41.4701 143.231 41.4696Z" fill="#6C63FF" />
	<path d="M170.231 41.4696H149.242C149.109 41.4687 148.981 41.4156 148.887 41.322C148.793 41.2283 148.74 41.1017 148.74 40.9696C148.74 40.8376 148.793 40.711 148.887 40.6173C148.981 40.5236 149.109 40.4705 149.242 40.4696H170.231C170.298 40.4692 170.364 40.4818 170.425 40.5067C170.487 40.5317 170.543 40.5684 170.591 40.6149C170.638 40.6614 170.675 40.7166 170.701 40.7775C170.727 40.8384 170.74 40.9037 170.74 40.9696C170.74 41.0356 170.727 41.1009 170.701 41.1618C170.675 41.2226 170.638 41.2779 170.591 41.3244C170.543 41.3709 170.487 41.4076 170.425 41.4325C170.364 41.4575 170.298 41.4701 170.231 41.4696H170.231Z" fill="#6C63FF" />
	<path d="M198.215 41.4696H176.265C176.125 41.4687 175.992 41.4157 175.893 41.322C175.795 41.2283 175.74 41.1017 175.74 40.9696C175.74 40.8376 175.795 40.7109 175.893 40.6173C175.992 40.5236 176.125 40.4705 176.265 40.4696H198.215C198.354 40.4705 198.488 40.5236 198.586 40.6173C198.685 40.7109 198.74 40.8376 198.74 40.9696C198.74 41.1017 198.685 41.2283 198.586 41.322C198.488 41.4157 198.354 41.4687 198.215 41.4696Z" fill="#6C63FF" />
	<path d="M105.74 36.4696C107.949 36.4696 109.74 34.6788 109.74 32.4696C109.74 30.2605 107.949 28.4696 105.74 28.4696C103.531 28.4696 101.74 30.2605 101.74 32.4696C101.74 34.6788 103.531 36.4696 105.74 36.4696Z" fill="#6C63FF" />
	<path d="M132.74 36.4696C134.949 36.4696 136.74 34.6788 136.74 32.4696C136.74 30.2605 134.949 28.4696 132.74 28.4696C130.531 28.4696 128.74 30.2605 128.74 32.4696C128.74 34.6788 130.531 36.4696 132.74 36.4696Z" fill="#6C63FF" />
	<path d="M159.74 36.4696C161.949 36.4696 163.74 34.6788 163.74 32.4696C163.74 30.2605 161.949 28.4696 159.74 28.4696C157.531 28.4696 155.74 30.2605 155.74 32.4696C155.74 34.6788 157.531 36.4696 159.74 36.4696Z" fill="#6C63FF" />
	<path d="M187.74 36.4696C189.949 36.4696 191.74 34.6788 191.74 32.4696C191.74 30.2605 189.949 28.4696 187.74 28.4696C185.531 28.4696 183.74 30.2605 183.74 32.4696C183.74 34.6788 185.531 36.4696 187.74 36.4696Z" fill="#6C63FF" />
	<path d="M8.28252 160.28C8.98849 160.556 9.7888 160.571 10.5079 160.324C11.227 160.076 11.8061 159.585 12.1183 158.958L34.7519 113.356C35.2699 112.312 35.4282 111.155 35.2067 110.032C34.9853 108.908 34.394 107.868 33.5076 107.043C32.6213 106.219 31.4797 105.646 30.2273 105.398C28.9749 105.15 27.6679 105.238 26.4715 105.65H26.4715C25.0893 106.119 23.9328 107 23.1985 108.142C23.0817 108.322 22.9758 108.508 22.8812 108.699L0.247652 154.301C0.093394 154.612 0.00949996 154.947 0.000761115 155.286C-0.00797773 155.626 0.0586092 155.963 0.19672 156.28C0.334831 156.597 0.541767 156.886 0.805697 157.132C1.06963 157.377 1.38538 157.574 1.73494 157.711L8.28252 160.28Z" fill="#4F46E5" />
	<path d="M33.8227 132.077L11.4352 127.654L16.9764 114.623C17.9203 111.438 20.1171 108.659 23.1683 106.791C26.2195 104.922 29.923 104.087 33.607 104.438L33.8227 104.46L33.8227 132.077Z" fill="#2F2E41" />
	<path d="M79.0417 160.932C78.3833 160.931 77.7392 160.76 77.1875 160.441C76.6357 160.121 76.1999 159.666 75.9328 159.131L53.2993 113.529C52.5795 112.078 52.5126 110.437 53.1123 108.944C53.7121 107.451 54.9329 106.218 56.5235 105.501C58.1142 104.783 59.9538 104.634 61.6638 105.086C63.3738 105.537 64.8242 106.554 65.7166 107.927V107.927C65.8421 108.121 65.9558 108.321 66.0573 108.525L88.6908 154.127C89.0542 154.859 89.0755 155.69 88.7501 156.436C88.4247 157.182 87.7792 157.783 86.9556 158.106L80.1861 160.761L80.1827 160.754C79.8168 160.872 79.4307 160.932 79.0417 160.932Z" fill="#4F46E5" />
	<path d="M47.7338 145.272C46.9625 145.273 46.223 145.546 45.6776 146.031C45.1322 146.516 44.8254 147.173 44.8246 147.859V200.883C44.8254 201.569 45.1322 202.226 45.6776 202.711C46.223 203.196 46.9625 203.469 47.7338 203.47H54.8903C55.6616 203.469 56.4011 203.196 56.9465 202.711C57.4919 202.226 57.7987 201.569 57.7996 200.883V147.859C57.7987 147.173 57.4919 146.516 56.9465 146.031C56.4011 145.546 55.6616 145.273 54.8903 145.272H47.7338Z" fill="#4F46E5" />
	<path d="M33.5793 145.272C32.808 145.273 32.0685 145.546 31.5231 146.031C30.9777 146.516 30.6709 147.173 30.67 147.859V200.883C30.6709 201.569 30.9777 202.226 31.5231 202.711C32.0685 203.196 32.808 203.469 33.5793 203.47H40.7359C41.5072 203.469 42.2467 203.196 42.7921 202.711C43.3375 202.226 43.6443 201.569 43.6451 200.883V147.859C43.6443 147.173 43.3375 146.516 42.7921 146.031C42.2467 145.546 41.5072 145.273 40.7359 145.272H33.5793Z" fill="#4F46E5" />
	<path d="M44.021 89.7197C57.6782 89.7197 68.7495 79.8774 68.7495 67.7363C68.7495 55.5953 57.6782 45.753 44.021 45.753C30.3638 45.753 19.2925 55.5953 19.2925 67.7363C19.2925 79.8774 30.3638 89.7197 44.021 89.7197Z" fill="#4F46E5" />
	<path d="M52.25 76.9646C53.853 76.925 55.848 76.8756 57.3849 75.8775C57.8425 75.5681 58.2185 75.1735 58.4866 74.7213C58.7546 74.2692 58.9082 73.7704 58.9365 73.2599C58.9643 72.8971 58.8973 72.5335 58.7408 72.1975C58.5844 71.8615 58.3426 71.5623 58.0344 71.3231C57.2317 70.7201 56.0596 70.5787 54.7964 70.9087L56.1051 62.406L55.1444 62.289L53.6058 72.285L54.4081 71.9577C55.3382 71.5784 56.6151 71.3854 57.4085 71.9815C57.6033 72.1373 57.7551 72.331 57.852 72.5474C57.949 72.7639 57.9884 72.9973 57.9674 73.2296C57.9439 73.6095 57.8286 73.9805 57.6293 74.3173C57.4301 74.6541 57.1516 74.9487 56.8128 75.1813C55.6168 75.9579 54.0266 76.0581 52.2231 76.1029L52.25 76.9646Z" fill="#2F2E41" />
	<path d="M66.0795 63.1393H60.8566V64.0014H66.0795V63.1393Z" fill="#2F2E41" />
	<path d="M49.5937 63.1393H44.3708V64.0014H49.5937V63.1393Z" fill="#2F2E41" />
	<path d="M68.5234 161.2L59.623 103.439C59.5276 102.82 59.183 102.252 58.6531 101.842C58.1232 101.431 57.4437 101.204 56.7405 101.204H50.0224C50.0504 101.062 50.065 100.918 50.066 100.773V98.6179C50.066 97.932 49.7594 97.2742 49.2139 96.7892C48.6683 96.3042 47.9283 96.0317 47.1567 96.0317H41.3383C40.5667 96.0317 39.8267 96.3042 39.2811 96.7892C38.7356 97.2742 38.429 97.932 38.429 98.6179V100.773C38.43 100.918 38.4446 101.062 38.4726 101.204H31.7544C31.0513 101.204 30.3718 101.431 29.8419 101.842C29.312 102.252 28.9675 102.82 28.872 103.439L19.9716 161.2C19.9152 161.565 19.9477 161.938 20.0667 162.292C20.1857 162.645 20.3885 162.973 20.6616 163.251C20.9347 163.529 21.2716 163.752 21.6498 163.905C22.0279 164.058 22.4385 164.137 22.8539 164.137H65.6411C66.0565 164.137 66.4671 164.058 66.8452 163.905C67.2233 163.752 67.5603 163.529 67.8334 163.251C68.1064 162.973 68.3093 162.645 68.4283 162.292C68.5473 161.938 68.5797 161.566 68.5234 161.2Z" fill="#2F2E41" />
	<path d="M54.6722 132.077V104.46L54.8879 104.438C58.5764 104.088 62.2841 104.925 65.3372 106.798C68.3903 108.671 70.5865 111.456 71.5266 114.646L77.0596 127.654L54.6722 132.077Z" fill="#2F2E41" />
	<path d="M42.7756 90.4057L25.6715 84.5038C22.8746 83.5388 20.0621 82.603 17.28 81.6047C16.0883 81.2356 14.9905 80.6604 14.05 79.9124C13.2312 79.1418 12.6731 78.1816 12.4397 77.1421C11.8465 74.913 11.9537 72.4759 11.996 70.2012C12.0288 67.7127 12.2592 65.2293 12.6854 62.7696C13.4323 58.1475 15.1864 53.6993 17.8494 49.6743C22.6461 42.6777 30.9105 37.4138 40.4168 37.8339C44.8179 38.0284 49.2442 39.4323 52.5141 42.1073C52.8552 42.4697 53.2379 42.7994 53.656 43.0911C53.9466 43.188 54.2629 43.2069 54.5655 43.1454C54.9645 43.1226 55.3639 43.1052 55.7635 43.0931C57.1504 43.0411 58.5397 43.093 59.9167 43.248C62.4262 43.489 64.8047 44.367 66.7682 45.7771C68.4022 47.0267 69.7319 48.7909 69.8687 50.7513C69.9347 51.6513 69.7673 52.5527 69.3794 53.3861C68.9915 54.2194 68.3934 54.9624 67.6313 55.5577C65.5907 57.0866 62.6793 56.5492 60.2315 56.4339L51.2644 56.0116L46.721 55.7976C45.7855 55.7536 45.7883 57.0468 46.721 57.0908L58.7968 57.6595C60.7373 57.7509 62.7373 57.9749 64.6794 57.8715C66.1717 57.8114 67.5966 57.3018 68.72 56.4264C69.7459 55.5886 70.5101 54.5287 70.9381 53.3502C71.3661 52.1716 71.4433 50.9146 71.1621 49.7016C70.5395 47.0561 68.3247 44.8676 65.7283 43.5656C62.1955 41.7941 57.9762 41.6244 54.0231 41.8863L54.5374 42.0757C50.0658 37.8091 43.2163 36.0077 36.7861 36.6381C29.9967 37.3037 23.9582 40.6709 19.6196 45.2752C14.7823 50.4087 12.1462 56.8098 11.1214 63.392C10.5881 66.9458 10.4126 70.5348 10.5968 74.1163C10.5892 75.6958 10.8932 77.2643 11.4949 78.7505C12.1815 80.1969 13.4228 81.38 14.9982 82.0894C16.8043 82.8645 18.6611 83.5426 20.5586 84.12L26.8601 86.2944L39.2381 90.5654L42.3889 91.6526C43.2621 91.9539 43.6403 90.7041 42.7756 90.4057Z" fill="#2F2E41" />
	<path d="M15.8824 46.4614C14.396 46.4614 12.9429 46.0695 11.707 45.3354C10.4711 44.6012 9.50781 43.5578 8.93898 42.337C8.37014 41.1161 8.2213 39.7727 8.51129 38.4767C8.80128 37.1807 9.51706 35.9902 10.5681 35.0558C11.6192 34.1214 12.9583 33.4851 14.4162 33.2273C15.8741 32.9695 17.3852 33.1018 18.7585 33.6075C20.1318 34.1132 21.3055 34.9696 22.1313 36.0683C22.9572 37.167 23.398 38.4587 23.398 39.7802C23.3957 41.5515 22.6032 43.2497 21.1942 44.5023C19.7853 45.7548 17.875 46.4594 15.8824 46.4614ZM15.8824 34.3921C14.6837 34.3921 13.5119 34.7081 12.5152 35.3001C11.5184 35.8922 10.7416 36.7337 10.2829 37.7182C9.82413 38.7028 9.7041 39.7861 9.93796 40.8313C10.1718 41.8765 10.7491 42.8366 11.5967 43.5901C12.4443 44.3436 13.5243 44.8568 14.7 45.0647C15.8757 45.2726 17.0943 45.1659 18.2018 44.7581C19.3093 44.3503 20.2559 43.6597 20.9219 42.7736C21.5879 41.8876 21.9433 40.8458 21.9433 39.7802C21.9415 38.3516 21.3024 36.9821 20.1661 35.972C19.0299 34.9619 17.4893 34.3937 15.8824 34.3921Z" fill="#2F2E41" />
</svg>
